<?xml version="1.0" encoding="UTF-8" standalone="no"?>
<svg width="160px" height="78px" viewBox="0 0 160 78" version="1.1" xmlns="http://www.w3.org/2000/svg" xmlns:xlink="http://www.w3.org/1999/xlink">
    <!-- Generator: Sketch 3.8.3 (29802) - http://www.bohemiancoding.com/sketch -->
    <title>Group</title>
    <desc>Created with Sketch.</desc>
    <defs></defs>
    <g id="Visuals" stroke="none" stroke-width="1" fill="none" fill-rule="evenodd">
        <g id="1" transform="translate(-400.000000, -36.000000)" fill="#00653A">
            <g id="Group" transform="translate(400.000000, 36.000000)">
                <path d="M48.6922378,0.538469319 C49.7067243,0.538469319 50.2827243,0.510735985 50.6667243,0.510735985 C51.1605622,0.483869319 51.6820757,0.318335985 52.0384,0.0713359852 C52.2027243,-0.0387306814 52.3947243,0.0436026519 52.339373,0.236002652 C52.0384,0.977869319 52.0384,1.69286932 51.9830486,2.70946932 C51.9562378,2.95733599 51.7088865,3.01193599 51.5990486,2.76493599 C51.4070486,2.27006932 51.2150486,1.80293599 50.5300757,1.61053599 C50.0630486,1.50046932 49.4325622,1.41726932 48.1430486,1.41726932 C47.7867243,1.41726932 47.7590486,1.50046932 47.7322378,1.72060265 C47.6768865,1.96760265 47.6224,2.92960265 47.6224,4.74353599 L47.6224,7.35480265 C47.6224,9.19646932 47.6224,9.88373599 47.7045622,10.5432693 C47.8420757,11.4498027 48.3082378,11.5598693 49.3780757,11.916936 C49.6522378,11.9992693 49.6245622,12.2748693 49.2682378,12.2748693 C48.3350486,12.2748693 47.6224,12.192536 46.5525622,12.192536 C45.7292108,12.192536 45.1264,12.2748693 44.0012108,12.2748693 C43.6725622,12.2748693 43.6725622,11.9992693 43.9467243,11.916936 C44.9067243,11.6422027 45.6747243,11.532136 45.7577514,10.7902693 C45.8122378,10.4054693 45.9212108,9.55440265 45.9212108,7.49173599 L45.9212108,4.77126932 C45.9212108,2.81953599 45.8675892,2.18773599 45.8675892,1.96760265 C45.8675892,1.50046932 45.8122378,1.41726932 45.4550486,1.41726932 C44.9067243,1.41726932 43.1242378,1.39040265 42.4928865,1.72060265 C42.0820757,1.96760265 41.8070486,2.51793599 41.6972108,2.87500265 C41.6159135,3.14886932 41.3140757,3.09513599 41.3140757,2.79180265 C41.3140757,2.54480265 41.4784,1.44500265 41.4784,0.290602652 C41.4784,-0.0387306814 41.6712649,-0.0664640148 41.8347243,0.0990693186 C41.9999135,0.263735985 42.2187243,0.346069319 42.5205622,0.428402652 C42.7947243,0.510735985 43.3439135,0.538469319 44.9067243,0.538469319 L48.6922378,0.538469319 Z" id="Fill-8"></path>
                <path d="M61.5307243,5.56790932 C63.7248865,5.56790932 64.0535351,5.51330932 64.2178595,5.48557599 C64.4652108,5.45784265 64.5482378,5.40324265 64.5482378,4.93610932 L64.5482378,3.94637599 C64.5482378,2.90204265 64.4928865,1.99464265 64.355373,1.69304265 C64.1088865,1.14357599 63.6150486,0.978042652 62.9015351,0.812509319 C62.6827243,0.757909319 62.7104,0.456309319 63.011373,0.456309319 C63.9168865,0.456309319 64.4652108,0.538642652 65.1778595,0.538642652 C65.9735351,0.538642652 66.6316973,0.456309319 67.619373,0.456309319 C67.9212108,0.456309319 67.9212108,0.757909319 67.6747243,0.812509319 C66.9612108,0.978042652 66.5495351,1.19817599 66.467373,1.55524265 C66.3307243,2.02237599 66.2485622,2.49037599 66.2485622,4.49584265 L66.2485622,7.73977599 C66.2485622,9.85617599 66.3307243,10.2678427 66.4396973,10.8173093 C66.5495351,11.449976 67.043373,11.642376 68.0042378,11.9171093 C68.2230486,11.9717093 68.2230486,12.2750427 67.8935351,12.2750427 C66.9335351,12.2750427 66.1110486,12.1918427 65.2876973,12.1918427 C64.5205622,12.1918427 63.9445622,12.2750427 63.203373,12.2750427 C62.8738595,12.2750427 62.8738595,11.9994427 63.0935351,11.9171093 C63.8070486,11.6978427 64.1356973,11.6146427 64.355373,11.0374427 C64.4652108,10.680376 64.5482378,9.96624265 64.5482378,8.34470932 L64.5482378,6.99790932 C64.5482378,6.63997599 64.4652108,6.55764265 64.2455351,6.53077599 C63.9990486,6.50304265 63.6695351,6.47530932 61.4208865,6.47530932 L61.0645622,6.47530932 C59.0892108,6.47530932 58.8695351,6.50304265 58.6784,6.53077599 C58.3488865,6.58537599 58.3212108,6.61310932 58.3212108,7.10710932 L58.3212108,8.09684265 C58.3212108,9.55370932 58.3756973,10.4056427 58.4587243,10.7904427 C58.6230486,11.4222427 59.1445622,11.7247093 59.8580757,11.9171093 C60.1045622,11.9994427 60.1045622,12.2750427 59.747373,12.2750427 C59.0892108,12.2750427 58.1024,12.1918427 57.3612108,12.1918427 C56.5110486,12.1918427 56.0172108,12.2750427 55.2492108,12.2750427 C54.947373,12.2750427 54.9750486,12.027176 55.1938595,11.9171093 C56.1270486,11.5600427 56.4012108,11.2853093 56.4842378,10.9005093 C56.5387243,10.5980427 56.6208865,10.1309093 56.6208865,8.09684265 L56.6208865,4.49584265 C56.6208865,3.56244265 56.5932108,2.38030932 56.4556973,1.82997599 C56.3458595,1.38970932 55.9627243,1.11584265 54.9205622,0.812509319 C54.7276973,0.757909319 54.7008865,0.456309319 54.9750486,0.456309319 C55.8796973,0.456309319 56.4842378,0.538642652 57.2245622,0.538642652 C58.1292108,0.538642652 58.6230486,0.456309319 59.6384,0.456309319 C59.9670486,0.456309319 59.9670486,0.757909319 59.7205622,0.812509319 C58.8150486,1.03350932 58.6230486,1.33597599 58.4864,1.74764265 C58.3488865,2.13244265 58.3212108,4.52357599 58.3212108,5.04617599 C58.3212108,5.40324265 58.3212108,5.48557599 58.5132108,5.51330932 C58.7052108,5.54104265 58.9248865,5.56790932 60.8725622,5.56790932 L61.5307243,5.56790932 Z" id="Fill-10"></path>
                <path d="M72.5594811,4.88072932 C72.5594811,3.23146265 72.5594811,2.70972932 72.4496432,2.02246265 C72.3398054,1.30832932 71.7361297,1.00586265 71.0502919,0.840329319 C70.7493189,0.757995985 70.7769946,0.455529319 71.0779676,0.455529319 C71.9834811,0.455529319 72.6148324,0.538729319 73.4641297,0.538729319 L76.2896432,0.538729319 C77.7434811,0.538729319 78.6749405,0.510995985 78.9222919,0.428662652 C79.0589405,0.345462652 79.1696432,0.318595985 79.1964541,0.318595985 C79.2518054,0.318595985 79.3339676,0.373195985 79.3062919,0.510995985 C79.1696432,1.17052932 79.1142919,2.18712932 79.1696432,2.87439599 C79.1964541,3.23146265 78.8401297,3.28692932 78.7856432,2.95759599 C78.6749405,2.35266265 78.2649946,1.74772932 77.7434811,1.60992932 C77.1942919,1.44526265 76.7013189,1.41752932 75.7136432,1.41752932 L74.9992649,1.41752932 C74.4241297,1.41752932 74.3696432,1.47299599 74.3151568,1.91326265 C74.2874811,2.16026265 74.2598054,2.90212932 74.2598054,3.75406265 L74.2598054,5.23866265 C74.2598054,5.56799599 74.2598054,5.54026265 74.8366703,5.59572932 L75.4118054,5.59572932 C76.9478054,5.59572932 77.5782919,5.51339599 77.8256432,5.43106265 C78.1542919,5.32099599 78.3739676,5.07312932 78.4569946,4.93532932 C78.5382919,4.79926265 78.7302919,4.85386265 78.7026162,5.04539599 C78.6481297,5.48566265 78.5659676,6.17292932 78.5659676,7.79446265 C78.5659676,8.01459599 78.2649946,8.04146265 78.2373189,7.82132932 C78.2096432,7.65752932 78.1266162,7.40966265 77.9622919,7.10719599 C77.6881297,6.64006265 77.0022919,6.47539599 75.5761297,6.47539599 L74.7536432,6.47539599 C74.3419676,6.47539599 74.2598054,6.50312932 74.2598054,6.83246265 L74.2598054,8.12466265 C74.2598054,10.0486627 74.3151568,10.7350627 74.5062919,11.0106627 C74.6982919,11.3122627 75.3019676,11.3668627 76.3986162,11.3668627 C77.0576432,11.3668627 77.7158054,11.339996 78.1266162,11.2576627 C78.5382919,11.2030627 78.8678054,11.0106627 79.1419676,10.7350627 C79.3616432,10.4603293 79.5259676,10.0486627 79.6358054,9.71846265 C79.7179676,9.49919599 79.9921297,9.52606265 79.9921297,9.74619599 C79.9921297,10.0209293 79.8822919,11.0652627 79.7179676,11.8903293 C79.6358054,12.247396 79.4706162,12.2742627 78.7302919,12.2742627 C77.8809946,12.2742627 74.3964541,12.1919293 73.0533189,12.1919293 C72.2576432,12.1919293 71.5441297,12.2742627 70.5296432,12.2742627 C70.2278054,12.2742627 70.2278054,11.9449293 70.4466162,11.917196 C71.3798054,11.724796 72.2299676,11.5601293 72.4219676,10.7896627 C72.4773189,10.515796 72.5594811,9.93859599 72.5594811,7.82132932 L72.5594811,4.88072932 Z" id="Fill-12"></path>
                <path d="M13.4555676,34.7479693 C13.4555676,33.799836 13.3318919,33.2633693 13.1269189,32.850836 C12.6737297,32.026636 11.3980541,31.738036 10.5340541,31.5317693 C10.2054054,31.449436 10.2054054,30.9953027 10.6992432,30.9953027 C12.3857297,30.9953027 13.2090811,31.119236 14.4432432,31.119236 C15.5130811,31.119236 16.3770811,30.9953027 17.2825946,30.9953027 C17.9001081,30.9953027 17.8179459,31.449436 17.4469189,31.5317693 C16.7887568,31.738036 16.2949189,32.232036 16.1712432,32.7269027 C16.0484324,33.097836 16.0484324,33.716636 16.0484324,34.995836 C16.0484324,36.8921027 16.1712432,37.634836 16.3770811,37.9641693 C16.5414054,38.1695693 16.4601081,38.3351027 16.2127568,38.417436 C14.3610811,38.9539027 12.1383784,39.6541693 9.99956757,39.6541693 C3.82702703,39.6541693 0,35.9439693 0,30.3773693 C0,27.1603027 1.52302703,24.3575027 4.56821622,22.625036 C6.29621622,21.6769027 8.35372973,21.0165027 10.7814054,21.0165027 C12.7143784,21.0165027 14.4025946,21.3059693 15.3072432,21.800836 C15.8010811,22.047836 15.9654054,22.2541027 15.9654054,22.5843027 C15.9654054,22.913636 15.9238919,23.202236 15.8832432,23.490836 C15.8010811,23.9441027 15.7604324,24.398236 15.7189189,25.3879693 C15.6774054,26.0059027 15.1014054,25.9651693 15.1014054,25.552636 C15.0598919,24.686836 14.5669189,23.9441027 13.6207568,23.2845693 C12.7143784,22.625036 11.2743784,22.1717693 9.46421622,22.1717693 C7.90054054,22.1717693 6.62572973,22.625036 5.72021622,23.2845693 C4.03286486,24.5213027 3.0867027,26.6247027 3.0867027,29.923236 C3.0867027,35.1189027 6.58421622,38.417436 11.2337297,38.417436 C12.1383784,38.417436 13.0438919,38.128836 13.1675676,37.881836 C13.3318919,37.6755693 13.4555676,36.8097693 13.4555676,35.820036 L13.4555676,34.7479693 Z" id="Fill-14"></path>
                <path d="M39.1737946,38.5829693 C39.5430919,38.706036 39.5430919,39.1185693 39.0501189,39.1185693 C37.4864432,39.1185693 36.6224432,38.994636 35.5526054,38.994636 C34.5234162,38.994636 33.7424432,39.1185693 32.5074162,39.1185693 C32.0550919,39.1185693 32.0144432,38.747636 32.3430919,38.6653027 C33.6594162,38.2943693 33.8237405,37.923436 33.6594162,37.0567693 C33.5357405,36.2733027 33.0427676,34.7887027 32.4659027,33.428036 C32.3430919,33.0571027 32.2609297,32.934036 32.0144432,32.892436 C31.7670919,32.850836 31.4790919,32.850836 29.2572541,32.850836 C27.2819027,32.850836 26.9523892,32.892436 26.7880649,32.934036 C26.582227,32.9747693 26.4594162,33.0571027 26.3763892,33.2633693 C26.2527135,33.5935693 25.8419027,34.5417027 25.5123892,35.9023693 C25.3065514,36.644236 25.1837405,37.4277027 25.5945514,37.881836 C25.8419027,38.1695693 26.3763892,38.375836 27.2403892,38.5829693 C27.6114162,38.6653027 27.5699027,39.1185693 27.1167135,39.1185693 C25.6352,39.1185693 24.7712,38.994636 23.6615784,38.994636 C22.7560649,38.994636 21.8090378,39.1185693 20.9450378,39.1185693 C20.4927135,39.1185693 20.4520649,38.6653027 20.8213622,38.5829693 C21.5210378,38.417436 22.0970378,38.128836 22.4265514,37.881836 C22.9203892,37.510036 23.5785514,36.5619027 24.1952,35.159636 C25.8419027,31.366236 27.3640649,27.5321027 28.5567135,24.5637693 C29.0514162,23.4093693 29.174227,22.9959693 29.4215784,22.7073693 L30.0797405,21.9247693 C30.5329297,21.3883027 30.8615784,21.0165027 31.0674162,21.0165027 C31.3139027,21.0165027 31.3969297,21.182036 31.3969297,21.4299027 C31.3969297,21.759236 31.3969297,22.0071027 31.6019027,22.666636 C32.5074162,25.6349693 34.3184432,31.738036 36.4166054,36.438836 C37.0341189,37.881836 37.6101189,38.128836 39.1737946,38.5829693 M31.6019027,31.2839027 C31.7264432,31.2431693 31.7264432,30.9545693 31.5612541,30.4597027 C30.6557405,27.6967693 30.326227,26.7079027 29.8739027,25.2233027 C29.7917405,24.8931027 29.6689297,24.8931027 29.4215784,25.4703027 C28.8455784,26.7079027 28.2280649,28.191636 27.3640649,30.583636 C27.1997405,31.0369027 27.158227,31.2839027 27.4047135,31.3255027 C27.5699027,31.366236 27.7757405,31.407836 29.462227,31.407836 C31.1089297,31.407836 31.3969297,31.366236 31.6019027,31.2839027" id="Fill-16"></path>
                <path d="M45.1814919,26.9546427 C45.1814919,25.4709093 45.0586811,24.481176 45.0171676,23.7800427 C44.9350054,23.243576 44.8121946,23.038176 44.6876541,22.8726427 C44.3996541,22.5840427 43.4950054,22.460976 42.7123027,22.377776 C42.1786811,22.336176 42.2193297,21.9245093 42.7123027,21.842176 C43.2883027,21.758976 46.6214919,21.3057093 49.2550054,21.3057093 C55.4275459,21.1410427 55.7155459,24.7689093 55.7155459,25.965776 C55.7155459,27.697376 54.7278703,29.0164427 53.9875459,29.4697093 L53.1641946,30.006176 C52.9583568,30.1301093 52.8761946,30.253176 53.0413838,30.6241093 C54.4398703,33.5517093 56.4558703,36.149976 57.8958703,37.304376 C59.2537081,38.4180427 60.3235459,38.7066427 60.4887351,38.747376 C60.6530595,38.788976 60.6937081,39.035976 60.5708973,39.077576 C60.4057081,39.1599093 59.7068973,39.324576 58.8428973,39.324576 C57.3198703,39.324576 55.7570595,38.8297093 54.8100324,38.0046427 C53.2878703,36.5616427 52.2180324,34.6246427 50.9838703,32.2326427 C50.6128432,31.449176 50.3248432,31.3668427 49.8725189,31.407576 C49.2965189,31.449176 48.6383568,31.5315093 47.9793297,31.5315093 C47.7743568,31.5315093 47.7328432,31.6147093 47.7328432,32.3973093 L47.7328432,34.1289093 C47.7328432,35.4488427 47.7743568,35.9021093 47.8565189,36.396976 C48.1030054,37.7160427 48.3910054,38.086976 50.2020324,38.5827093 C50.6543568,38.7066427 50.6543568,39.1183093 50.1605189,39.1183093 C49.0500324,39.1183093 47.8565189,38.9952427 46.6630054,38.9952427 C45.4288432,38.9952427 44.1531676,39.1183093 43.0011676,39.1183093 C42.5479784,39.1183093 42.4666811,38.7066427 42.9181405,38.5827093 C44.4818162,38.170176 44.8528432,37.8408427 45.0171676,36.6448427 C45.0586811,36.0676427 45.1814919,35.0363093 45.1814919,33.4286427 L45.1814919,26.9546427 Z M47.7328432,29.5529093 C47.7328432,30.006176 47.7743568,30.1301093 48.1030054,30.1708427 C48.6383568,30.2124427 49.1313297,30.2124427 49.9953297,30.2124427 C51.3540324,30.2124427 53.1235459,29.4697093 53.1235459,27.1193093 C53.1235459,24.6458427 51.4768432,22.460976 48.5968432,22.460976 C48.0208432,22.460976 47.9378162,22.5840427 47.8565189,22.8726427 C47.7743568,23.1205093 47.7328432,23.6561093 47.7328432,25.552376 L47.7328432,29.5529093 Z" id="Fill-18"></path>
                <path d="M65.9616865,27.8204427 C65.9616865,25.305376 65.8795243,24.3572427 65.7973622,23.6977093 C65.6736865,22.9957093 65.3856865,22.707976 63.4518486,22.377776 C63.1223351,22.336176 63.1223351,21.9245093 63.4933622,21.8829093 C64.6868757,21.758976 67.4847135,21.3473093 70.982227,21.3473093 C74.6440649,21.3473093 77.0717405,22.0068427 78.6354162,23.326776 C80.2397405,24.728176 81.1037405,26.7076427 81.1037405,29.428976 C81.1037405,33.4286427 79.2944432,35.531176 76.9074162,37.1388427 C74.0680649,38.9952427 70.6120649,39.1183093 69.3770378,39.1183093 C68.5545514,39.1183093 67.5660108,39.077576 66.8672,39.035976 C66.2090378,39.035976 65.6330378,38.9952427 65.3450378,39.035976 C64.9748757,39.035976 64.4395243,39.035976 63.9863351,39.077576 C63.616173,39.1183093 63.5348757,38.6234427 63.904173,38.5411093 C64.8096865,38.3764427 65.4272,37.9639093 65.6736865,37.0565093 C65.8388757,36.438576 65.9616865,35.242576 65.9616865,31.8617093 L65.9616865,27.8204427 Z M68.5130378,32.7691093 C68.5130378,35.284176 68.6367135,36.4793093 68.7595243,36.8918427 C68.8832,37.2636427 69.2127135,37.509776 69.4185514,37.5522427 C69.7480649,37.634576 70.6120649,37.7160427 71.3523892,37.7160427 C72.998227,37.7160427 74.8499027,37.345976 75.9612541,36.5209093 C77.4834162,35.3249093 78.3067676,33.222376 78.3067676,30.3355093 C78.3067676,25.7595093 75.8367135,22.460976 70.3240649,22.460976 C69.8293622,22.460976 69.4185514,22.5017093 69.1712,22.5840427 C68.9653622,22.666376 68.7595243,22.749576 68.6773622,23.326776 C68.5952,23.7800427 68.5130378,24.8521093 68.5130378,28.1506427 L68.5130378,32.7691093 Z" id="Fill-20"></path>
                <path d="M87.7708973,28.0271427 C87.7708973,25.5528093 87.7708973,24.7693427 87.606573,23.738876 C87.4413838,22.6668093 86.5367351,22.212676 85.5075459,21.965676 C85.0543568,21.8417427 85.0967351,21.388476 85.5490595,21.388476 C86.9068973,21.388476 87.8530595,21.5124093 89.1287351,21.5124093 L93.3674378,21.5124093 C95.5477622,21.5124093 96.9471135,21.4708093 97.3172757,21.346876 C97.5231135,21.2229427 97.6874378,21.1822093 97.7280865,21.1822093 C97.8111135,21.1822093 97.9339243,21.2645427 97.8932757,21.4708093 C97.6874378,22.4605427 97.6052757,23.985876 97.6874378,25.0172093 C97.7280865,25.5528093 97.1936,25.6351427 97.1114378,25.140276 C96.9471135,24.232876 96.3287351,23.3263427 95.5477622,23.120076 C94.7244108,22.8722093 93.9840865,22.831476 92.5034378,22.831476 L91.4327351,22.831476 C90.5687351,22.831476 90.486573,22.9138093 90.4044108,23.5733427 C90.3637622,23.944276 90.3213838,25.0579427 90.3213838,26.336276 L90.3213838,28.5627427 C90.3213838,29.0576093 90.3213838,29.016876 91.1862486,29.0992093 L92.0511135,29.0992093 C94.3542486,29.0992093 95.3004108,28.975276 95.6714378,28.8513427 C96.1652757,28.686676 96.4939243,28.3157427 96.6176,28.109476 C96.7412757,27.9032093 97.0292757,27.9855427 96.9877622,28.2741427 C96.9056,28.933676 96.7819243,29.9650093 96.7819243,32.3977427 C96.7819243,32.727076 96.3287351,32.768676 96.2880865,32.438476 C96.246573,32.191476 96.1237622,31.8205427 95.8764108,31.3664093 C95.4656,30.6661427 94.4364108,30.418276 92.2967351,30.418276 L91.062573,30.418276 C90.4459243,30.418276 90.3213838,30.459876 90.3213838,30.9547427 L90.3213838,32.8926093 C90.3213838,35.7786093 90.4044108,36.8099427 90.6924108,37.2216093 C90.9804108,37.6757427 91.8859243,37.758076 93.5317622,37.758076 C94.5194378,37.758076 95.5071135,37.716476 96.1237622,37.5925427 C96.7412757,37.5102093 97.2351135,37.2216093 97.6459243,36.8099427 C97.9754378,36.3965427 98.2219243,35.7786093 98.3871135,35.2846093 C98.5099243,34.9544093 98.9224649,34.9960093 98.9224649,35.3253427 C98.9224649,35.7370093 98.7572757,37.3048093 98.5099243,38.5415427 C98.3871135,39.0780093 98.140627,39.1187427 97.0292757,39.1187427 C95.7536,39.1187427 90.5280865,38.9948093 88.5112216,38.9948093 C87.318573,38.9948093 86.2487351,39.1187427 84.7257081,39.1187427 C84.2733838,39.1187427 84.2733838,38.623876 84.6028973,38.5831427 C86.0013838,38.2945427 87.2770595,38.046676 87.5650595,36.892276 C87.6472216,36.4797427 87.7708973,35.6139427 87.7708973,32.438476 L87.7708973,28.0271427 Z" id="Fill-22"></path>
                <path d="M27.7754811,49.0022093 C29.2976432,49.0022093 30.1616432,48.9606093 30.7376432,48.9606093 C31.4788324,48.919876 32.2606703,48.6720093 32.7951568,48.301076 C33.0425081,48.1355427 33.3305081,48.259476 33.2474811,48.548076 C32.7951568,49.6617427 32.7951568,50.7338093 32.7129946,52.2591427 C32.6723459,52.6309427 32.3013189,52.713276 32.1369946,52.3423427 C31.8498595,51.5996093 31.5618595,50.8993427 30.5326703,50.6107427 C29.8329946,50.4452093 28.8868324,50.3221427 26.9521297,50.3221427 C26.4176432,50.3221427 26.3761297,50.4452093 26.3354811,50.7745427 C26.2533189,51.145476 26.1711568,52.5893427 26.1711568,55.310676 L26.1711568,59.2280093 C26.1711568,61.9909427 26.1711568,63.0214093 26.2948324,64.0111427 C26.4998054,65.3718093 27.1994811,65.536476 28.8038054,66.0729427 C29.2163459,66.1960093 29.1748324,66.6085427 28.6403459,66.6085427 C27.2401297,66.6085427 26.1711568,66.4846093 24.5659676,66.4846093 C23.3318054,66.4846093 22.4262919,66.6085427 20.7398054,66.6085427 C20.2451027,66.6085427 20.2451027,66.1960093 20.6567784,66.0729427 C22.0976432,65.6604093 23.2496432,65.494876 23.3733189,64.382076 C23.4546162,63.804876 23.6198054,62.5265427 23.6198054,59.4334093 L23.6198054,55.352276 C23.6198054,52.424676 23.5376432,51.4765427 23.5376432,51.145476 C23.5376432,50.4452093 23.4546162,50.3221427 22.9201297,50.3221427 C22.0976432,50.3221427 19.4226162,50.279676 18.4764541,50.7745427 C17.8580757,51.145476 17.4472649,51.9705427 17.2829405,52.5070093 C17.1592649,52.9195427 16.7069405,52.8363427 16.7069405,52.383076 C16.7069405,52.011276 16.953427,50.362876 16.953427,48.631276 C16.953427,48.1355427 17.241427,48.0948093 17.4887784,48.3418093 C17.7352649,48.589676 18.0647784,48.7127427 18.5179676,48.836676 C18.9287784,48.9606093 19.7521297,49.0022093 22.0976432,49.0022093 L27.7754811,49.0022093 Z" id="Fill-24"></path>
                <path d="M59.4474378,53.4959627 C59.4474378,51.2287627 59.3652757,50.8569627 59.2000865,50.486896 C58.9129514,49.868096 58.0480865,49.6202293 57.3077622,49.4139627 C56.9367351,49.3732293 56.9367351,48.8783627 57.3492757,48.8783627 C58.9942486,48.8783627 59.6117622,49.002296 60.6409514,49.002296 C61.8751135,49.002296 62.5739243,48.8783627 64.0554378,48.8783627 C64.5492757,48.8783627 64.5907892,49.332496 64.1791135,49.4139627 C63.3151135,49.579496 62.9034378,49.868096 62.6569514,50.2797627 C62.1216,50.980896 61.9987892,53.1250293 61.9987892,55.970296 L61.9987892,59.0218293 C61.9987892,61.2890293 62.5739243,62.9391627 63.4379243,63.6810293 C64.1791135,64.422896 65.4954378,65.2063627 67.3064649,65.2063627 C68.2534919,65.2063627 69.6934919,65.1656293 70.7218162,64.0519627 C71.7916541,63.063096 72.4091676,61.0836293 72.4091676,57.2893627 L72.4091676,54.238696 C72.4091676,52.3424293 72.2033297,51.4766293 71.9974919,50.9401627 C71.6679784,50.156696 70.9691676,49.826496 69.7341405,49.4139627 C69.3639784,49.290896 69.4461405,48.8783627 69.8163027,48.8783627 C71.0098162,48.8783627 72.1618162,49.002296 73.3553297,49.002296 C74.3421405,49.002296 75.2476541,48.8783627 76.0710054,48.8783627 C76.5233297,48.8783627 76.5648432,49.332496 76.1540324,49.4139627 C75.4534919,49.579496 74.8368432,49.9504293 74.5073297,50.8162293 C74.3014919,51.3518293 74.1786811,52.218496 74.0956541,53.9093627 L73.8906811,58.7739627 C73.6839784,63.6810293 70.7218162,66.9795627 65.948627,66.9795627 C63.6852757,66.9795627 61.7929514,66.3191627 60.6409514,64.9177627 C59.8582486,63.928896 59.4474378,62.649696 59.4474378,60.299296 L59.4474378,53.4959627 Z" id="Fill-26"></path>
                <path d="M89.9513081,49.2908093 C90.3621189,49.5794093 90.4044973,49.9503427 90.4044973,50.1566093 C90.4044973,50.362876 90.3621189,50.5691427 90.2808216,50.8993427 C90.2393081,51.228676 90.1571459,51.7651427 90.1571459,52.5070093 C90.1571459,52.960276 89.6217946,52.960276 89.5811459,52.4654093 C89.5396324,52.1352093 89.376173,51.6412093 88.8408216,51.0224093 C88.1411459,50.1973427 87.1941189,49.785676 86.0421189,49.785676 C84.6427676,49.785676 83.6144432,50.7338093 83.6144432,52.383076 C83.6144432,54.650276 85.3017946,55.5169427 87.0297946,56.134876 C89.4574703,57.000676 91.5564973,57.9089427 91.5564973,60.877276 C91.5564973,63.186076 90.1156324,64.7530093 89.0051459,65.578076 C87.7294703,66.5262093 86.2894703,66.979476 84.9307676,66.979476 C83.6144432,66.979476 82.5446054,66.690876 81.7627676,66.2367427 C81.0224432,65.7427427 80.5701189,65.247876 80.4049297,64.670676 C80.3227676,64.382076 80.5294703,63.9288093 80.7344432,63.6402093 C80.9394162,63.3100093 81.2689297,62.4026093 81.4341189,62.0325427 C81.5577946,61.743076 81.9270919,61.784676 81.9694703,62.1556093 C81.9694703,62.4026093 81.9694703,62.7744093 82.2566054,63.3923427 C82.7919568,64.5060093 84.5606054,65.494876 86.1657946,65.494876 C88.0996324,65.494876 89.2109838,64.423676 89.2109838,62.320276 C89.2109838,60.1354093 87.6057946,59.104076 85.4254703,58.3206093 C82.6267676,57.330876 81.3104432,56.0118093 81.3104432,53.8668093 C81.3104432,52.7956093 81.6390919,51.517276 82.8741189,50.3221427 C83.8617946,49.3324093 85.4254703,48.5073427 87.1941189,48.5073427 C88.7984432,48.5073427 89.5811459,49.0438093 89.9513081,49.2908093" id="Fill-28"></path>
                <path d="M106.122897,49.0022093 C107.645059,49.0022093 108.509059,48.9606093 109.085059,48.9606093 C109.826249,48.919876 110.608086,48.6720093 111.142573,48.301076 C111.389924,48.1355427 111.677924,48.259476 111.595762,48.548076 C111.142573,49.6617427 111.142573,50.7338093 111.060411,52.2591427 C111.019762,52.6309427 110.6496,52.713276 110.484411,52.3423427 C110.196411,51.5996093 109.908411,50.8993427 108.880086,50.6107427 C108.180411,50.4452093 107.233384,50.3221427 105.300411,50.3221427 C104.765059,50.3221427 104.724411,50.4452093 104.682897,50.7745427 C104.600735,51.145476 104.518573,52.5893427 104.518573,55.310676 L104.518573,59.2280093 C104.518573,61.9909427 104.518573,63.0214093 104.641384,64.0111427 C104.847222,65.3718093 105.546032,65.536476 107.152086,66.0729427 C107.562897,66.1960093 107.522249,66.6085427 106.987762,66.6085427 C105.588411,66.6085427 104.518573,66.4846093 102.913384,66.4846093 C101.678357,66.4846093 100.773708,66.6085427 99.0863568,66.6085427 C98.5933838,66.6085427 98.5933838,66.1960093 99.0041946,66.0729427 C100.444195,65.6604093 101.596195,65.494876 101.720735,64.382076 C101.802897,63.804876 101.966357,62.5265427 101.966357,59.4334093 L101.966357,55.352276 C101.966357,52.424676 101.885059,51.4765427 101.885059,51.145476 C101.885059,50.4452093 101.802897,50.3221427 101.267546,50.3221427 C100.444195,50.3221427 97.7700324,50.279676 96.8238703,50.7745427 C96.2063568,51.145476 95.7946811,51.9705427 95.6303568,52.5070093 C95.5066811,52.9195427 95.0543568,52.8363427 95.0543568,52.383076 C95.0543568,52.011276 95.3017081,50.362876 95.3017081,48.631276 C95.3017081,48.1355427 95.5897081,48.0948093 95.8361946,48.3418093 C96.0826811,48.589676 96.4113297,48.7127427 96.8645189,48.836676 C97.2761946,48.9606093 98.0986811,49.0022093 100.444195,49.0022093 L106.122897,49.0022093 Z" id="Fill-30"></path>
                <path d="M156.637059,41.822136 C156.615438,41.5058027 156.776303,41.296936 157.221708,40.795136 C158.727438,39.2758693 159.728951,37.3094027 159.965924,35.5102027 C159.67533,35.7268693 159.548195,35.7728027 159.290465,35.7910027 C158.817384,35.818736 158.452411,35.527536 158.424735,35.0898693 C158.414357,34.8922693 158.442032,34.6548027 158.511222,34.3722693 C158.766357,33.603536 158.975654,32.839136 159.187546,32.0712693 C159.479005,31.1820693 159.604411,30.3804027 159.587114,29.3924027 C159.305168,29.7278027 159.050897,29.8604027 158.707546,29.8812027 C158.449816,29.8994027 158.184303,29.7954027 158.044195,29.6056027 C157.850465,29.3014027 157.790789,29.0266693 157.6256,27.0550027 C157.515762,25.9942027 157.385168,25.247136 157.161168,24.430736 C155.09933,26.0236693 153.2096,26.9726693 152.264303,27.0316027 C151.702141,27.0654027 151.210897,26.781136 151.184951,26.346936 C151.176303,26.1892027 151.210032,26.066136 151.324195,25.8616027 C149.963762,26.2238693 148.880951,26.843536 147.655438,27.992736 C145.816735,29.7312693 145.816735,29.7312693 145.387762,29.7572693 C144.954465,29.784136 144.677708,29.4834027 144.644843,28.9694693 C144.637059,28.8516027 144.634465,28.772736 144.662141,28.5742693 C143.792951,29.141936 143.221276,29.693136 142.783654,30.317136 C142.385816,30.8960693 141.991438,31.5140027 141.596195,32.0938027 C141.358357,32.4630027 141.029708,32.6848693 140.768519,32.6996027 C140.553168,32.7126027 140.294573,32.690936 139.984951,32.5886693 C139.412411,32.4292027 139.061276,32.3312693 138.538897,32.285336 C138.51987,33.356536 138.584735,35.1332027 138.822573,36.1506693 C138.890032,36.5406693 138.951438,36.8552693 138.960086,36.973136 C138.985168,37.4082027 138.661708,37.7834693 138.275114,37.8094693 C138.146249,37.8164027 138.059762,37.8224693 137.886789,37.794736 C138.241384,40.7422693 140.085276,42.880336 142.108195,42.7546693 C142.368519,42.739936 142.631438,42.635936 143.032735,42.596936 C144.485708,42.3412693 145.418032,43.5086693 144.053276,44.3952693 C143.984951,44.4282027 138.170465,47.7700693 132.931978,47.0212693 C126.198141,46.0584027 123.22387,41.9244027 119.570681,37.3154693 C119.226465,36.8812693 118.994681,36.7382693 118.954032,36.3266027 C118.871005,35.5422693 118.788843,34.1824693 118.788843,30.3474693 C118.788843,27.6252693 118.994681,25.4404027 119.200519,24.2444027 C119.488519,22.7606693 120.270357,22.3472693 121.380843,21.9356027 C121.834032,21.7700693 121.793384,21.399136 121.340195,21.399136 C120.270357,21.399136 119.282681,21.523936 118.213708,21.523936 C116.978681,21.523936 115.786032,21.399136 114.551005,21.399136 C114.098681,21.399136 114.098681,21.8532693 114.468843,21.9356027 C116.608519,22.4720693 117.061708,22.8014027 117.266681,24.7392693 C117.431005,26.2654693 117.554681,27.584536 117.554681,30.1412027 C117.554681,32.6146693 117.554681,34.2648027 117.513168,34.594136 C117.513168,34.882736 117.390357,34.924336 117.102357,34.5534027 C115.043978,31.8320693 109.737168,24.9862693 108.049816,23.0492693 C104.470141,18.801736 100.766789,15.008336 95.1702486,15.008336 C91.9200865,15.008336 89.5737081,16.5752693 88.7927351,18.3484693 C88.5047351,18.9256693 88.6275459,19.378936 88.8333838,19.5436027 C89.0400865,19.667536 89.2857081,19.667536 89.3687351,19.378936 C89.6973838,17.6066027 91.0967351,16.3274027 94.1419243,16.3274027 C98.4619243,16.3274027 101.918789,19.462136 104.963978,23.460936 C105.210465,23.791136 105.292627,24.038136 105.334141,24.656936 C105.374789,25.192536 105.374789,26.5124693 105.374789,30.4298027 C105.374789,33.4804693 105.210465,36.078736 105.004627,36.8622027 C104.799654,37.521736 104.182141,38.0166027 103.523978,38.2636027 L102.700627,38.5946693 C102.288951,38.7584693 102.248303,39.1294027 102.782789,39.1294027 C103.728951,39.1294027 104.922465,39.006336 106.074465,39.006336 C107.22733,39.006336 108.296303,39.1294027 109.367005,39.1294027 C109.81933,39.1294027 109.900627,38.8000693 109.449168,38.5946693 L108.296303,38.140536 C107.432303,37.810336 106.65133,37.274736 106.65133,32.4084027 L106.65133,26.099936 C106.65133,25.6466693 106.815654,25.6882693 107.021492,25.9352693 C110.147978,30.0172693 114.631438,36.0362693 117.349708,38.8824027 C119.789492,41.437336 123.429708,44.7800693 124.960519,45.696136 C125.480303,46.1658693 125.163762,46.3868693 124.37587,49.4860693 C124.113816,50.516536 123.997924,51.2532027 123.383005,51.9248693 C122.972195,52.3746693 122.381492,52.1814027 121.56333,51.9768693 C119.845708,51.548736 118.42387,52.4622027 117.425816,53.5654693 C116.400951,54.692136 116.105168,55.713936 115.148627,57.8260027 C115.634681,57.617136 116.024735,57.6466027 116.317059,57.9100693 C116.608519,58.1744027 116.700195,58.532336 116.670789,59.1546027 C116.619762,61.493736 116.679438,62.471336 117.068627,64.0694693 C117.130032,63.8042693 117.17933,63.6838027 117.287438,63.5650693 C117.555546,63.2678027 118.030357,63.266936 118.322681,63.5304027 C118.549276,63.7366693 118.661708,64.002736 118.772411,64.5374693 C119.434897,67.1998693 119.60787,68.1956693 120.457168,69.3474693 C120.775438,68.929736 121.1136,68.3490693 121.439654,68.6454693 C121.731114,68.9098027 121.847005,69.174136 122.350357,70.4464027 C122.551005,71.007136 122.945384,72.0878693 123.304303,72.7370027 C123.788627,72.2022693 124.208086,71.597336 124.661276,72.0090027 C125.603114,72.863536 125.923114,75.8552693 125.954249,77.7818693 C126.284627,77.4828693 126.892627,76.5312693 127.108843,76.2946693 C127.645924,75.6992693 128.303222,74.7780027 128.675114,73.976336 C129.002032,73.3540693 129.417168,72.3756027 129.873816,71.8694693 C130.198141,71.514136 130.548411,71.4526027 130.840735,71.7178027 C130.97133,71.833936 131.040519,71.9518027 131.127005,72.249936 C131.660627,71.2688693 131.763546,70.7644693 131.536086,68.3378027 C131.514465,67.7736027 131.572411,67.4494693 131.733276,67.2700693 C131.950357,67.0326027 132.396627,67.060336 132.890465,67.562136 C133.104086,66.6720693 133.033168,65.9016027 132.760735,64.894536 C132.581708,64.2428027 132.368951,63.563336 132.216735,62.882136 C132.092195,62.4964693 132.125059,62.2026693 132.286789,62.024136 C132.502141,61.7866693 132.830789,61.8118027 133.278789,62.1662693 C132.893924,61.223336 132.494357,60.422536 131.871654,59.476136 C131.550789,58.9154027 131.521384,58.560936 131.734141,58.3208693 C131.922681,58.1128693 132.157924,58.113736 132.502141,58.2602027 C131.876843,56.6620693 131.645924,55.706136 129.744951,53.8280693 C128.942357,53.0350693 127.914897,52.588736 126.771546,52.742136 C126.064951,52.8028027 125.866032,52.7776693 125.505384,52.604336 C125.033168,52.3764027 124.842897,51.858136 125.196627,49.9358693 C125.458681,48.509336 125.674897,47.9234693 125.876411,47.3540693 C126.132411,46.6304027 126.317492,46.4804693 127.050032,46.6936693 C128.1856,47.1452027 129.539114,47.4762693 130.881384,47.7146027 C138.455005,49.060536 144.179546,45.1302027 145.159438,44.5088027 C145.848735,44.0208693 146.900411,43.681136 147.029276,45.0374693 C147.236843,47.222336 148.715762,47.6210027 153.641168,47.1192027 C153.360086,46.777736 152.997708,46.5654027 152.980411,46.288936 C152.949276,45.815736 153.232086,45.5202027 153.948195,45.157936 C155.57933,44.3034027 156.572195,43.6100693 157.7536,42.4262027 C157.022789,42.472136 156.662141,42.2164693 156.637059,41.822136 M120.236627,58.3884693 C119.563762,59.1320693 119.049168,59.962336 118.807005,60.5534027 C118.788843,60.7042027 118.761168,60.7328027 118.736086,60.765736 C118.680735,60.8220693 118.621924,60.8220693 118.557059,60.763136 C118.525059,60.7328027 118.48787,60.6452693 118.530249,60.4684693 C118.608086,59.400736 119.232519,58.1224027 120.174357,57.0824027 C121.199222,55.9540027 121.650681,55.7130693 121.976735,56.0094693 C122.204195,56.215736 122.230141,56.5104027 122.00787,56.6898027 C121.540843,57.0798027 120.802249,57.7644693 120.236627,58.3884693 M122.676411,61.9600027 C122.032086,63.0008693 121.393816,64.7524027 121.245059,65.700536 C121.205276,65.937136 121.155978,66.0558693 121.128303,66.0862027 C121.04787,66.1746027 120.95533,66.145136 120.893059,66.0844693 C120.762465,65.9674693 120.757276,65.255936 120.880086,64.3398693 C121.034897,63.1222027 121.553816,61.701736 122.013059,61.1930027 C122.229276,60.9564027 122.464519,60.9572693 122.660843,61.132336 C122.884843,61.340336 122.882249,61.6064027 122.676411,61.9600027 M129.503654,67.3550027 C129.423222,67.445136 129.296086,67.387936 129.225168,67.2666027 C129.021924,66.9736693 128.517708,66.3514027 127.939114,65.5540693 C127.403762,64.9058027 126.902141,64.286136 126.572627,63.9308027 C126.305384,63.6344027 126.251762,63.3692027 126.411762,63.1898027 C126.575222,63.0138693 126.845059,63.0424693 127.103654,63.277336 C127.395978,63.5416693 128.049816,64.5192693 128.819546,65.760336 C129.521816,66.940736 129.636843,67.2050693 129.503654,67.3550027 M125.571978,56.6750693 C125.759654,56.467936 126.088303,56.4974027 126.381492,56.761736 C126.934141,57.2644027 128.104303,58.7126027 128.960519,59.920736 C129.885924,61.2536693 130.097816,61.6064027 129.934357,61.7832027 C129.8816,61.8438693 129.763114,61.8456027 129.664519,61.7546027 C129.630789,61.7268693 129.596195,61.636736 129.427546,61.4330693 C128.995114,60.9304027 128.426032,60.2500693 127.64333,59.4822027 C127.116627,58.950936 126.563114,58.391936 126.006141,57.8312027 C125.411978,57.1812027 125.330681,56.9446027 125.571978,56.6750693 M127.020627,70.0330027 C127.101924,70.2696027 127.059546,70.4464027 126.951438,70.565136 C126.903005,70.684736 126.691978,70.6578693 126.561384,70.5356693 C126.398789,70.3892027 126.32787,70.2730693 125.754465,68.5570693 C124.258249,64.2662027 123.344086,59.5290027 123.238573,55.204336 C123.213492,53.9910027 123.218681,53.7214693 123.409816,53.5160693 C123.597492,53.3080693 123.892411,53.3046027 124.054141,53.451936 C124.190789,53.6304693 124.233168,53.7778027 124.264303,54.1340027 C124.139762,58.5202027 124.949276,63.108336 127.020627,70.0330027 M149.428411,29.0752027 C149.588411,28.829936 149.667978,28.7450027 149.796843,28.7380693 C149.840086,28.7328693 149.931762,28.809136 149.938681,28.8888693 C149.942141,28.9668693 149.904951,29.0474693 149.871222,29.206936 C149.582357,30.1386027 149.40333,31.4550693 149.473384,32.5990693 C149.502789,33.034136 149.573708,33.5056027 149.69133,33.9736027 C149.744951,34.1694693 149.746681,34.209336 149.752735,34.2882027 C149.763978,34.4858027 149.600519,34.6556693 149.386032,34.6686693 C148.999438,34.690336 148.746032,34.1122693 148.673384,32.888536 C148.587762,31.5070693 148.881816,30.0216027 149.428411,29.0752027 M145.121384,39.768136 C144.342141,39.0644027 143.595762,36.7712027 143.450465,34.4424693 C143.415005,33.850536 143.448735,33.6876027 143.664086,33.6746027 C143.83533,33.665936 143.881168,33.7396027 143.949492,34.133936 C144.386249,36.3240027 145.002897,37.8736027 145.861708,39.2074027 C145.955114,39.3200693 146.006141,39.4370693 146.013059,39.515936 C146.029492,39.7924027 145.823654,39.9640027 145.610032,39.9770027 C145.437059,39.9848027 145.258897,39.9180693 145.121384,39.768136 M146.418681,41.905336 C146.117708,41.9244027 145.893708,41.7796693 145.876411,41.5040693 C145.866897,41.3454693 145.944735,41.221536 146.227546,40.8896027 C147.9936,38.7186027 149.469924,36.6828027 151.569816,33.621736 C152.958789,31.630136 153.470789,30.8076693 153.982789,29.984336 C154.256951,29.5310693 154.336519,29.4452693 154.452411,29.162736 C154.570897,28.993736 154.650465,28.9122693 154.77933,28.9010027 C154.951438,28.8932027 155.044843,29.0050027 155.055222,29.162736 C155.079438,29.557936 153.436195,32.3538027 150.980843,35.995536 C149.839222,37.7722027 148.567005,39.593936 147.726357,40.6746693 C146.887438,41.7978693 146.765492,41.884536 146.418681,41.905336 M155.280086,40.4848693 C154.115114,41.229336 152.114681,41.7502027 150.048519,41.8810693 C148.799654,41.9556027 148.448519,41.9010027 148.428627,41.5422027 C148.41133,41.2666027 148.660411,41.094136 149.047005,41.068136 C149.132627,41.0664027 149.262357,41.0542693 149.4336,41.0464693 C149.782141,41.065536 150.126357,41.0412693 150.602032,41.013536 C152.280735,40.9078027 153.900627,40.5316693 155.205708,40.012536 C155.2896,39.9674693 155.375222,39.9648693 155.461708,39.957936 C155.551654,39.952736 155.638141,39.9856693 155.640735,40.064536 C155.650249,40.1832693 155.528303,40.3124027 155.280086,40.4848693 M155.456519,34.9234693 C154.463654,35.660136 153.206141,36.291936 152.776303,36.3188027 C152.471005,36.3378693 152.291114,36.1922693 152.279005,35.995536 C152.263438,35.7580693 152.426032,35.5882027 152.803978,35.405336 C154.240519,34.7830693 156.34387,33.3088693 156.561816,33.1520027 C156.822141,32.943136 157.091114,32.677936 157.197492,32.7342693 C157.320303,32.774136 157.219114,33.073136 157.128303,33.2152693 C156.969168,33.4648693 156.054141,34.4910027 155.456519,34.9234693" id="Fill-32"></path>
                <path d="M40.2840216,54.0810493 C40.2840216,52.597316 40.1612108,51.606716 40.1196973,50.9064493 C40.0375351,50.3708493 39.9147243,50.163716 39.7901838,49.9990493 C39.5021838,49.7104493 38.5975351,49.586516 37.8156973,49.5050493 C37.2812108,49.4625827 37.3218595,49.050916 37.8156973,48.9685827 C38.3916973,48.8853827 41.7240216,48.432116 44.3575351,48.432116 C50.5300757,48.2674493 50.8180757,51.895316 50.8180757,53.0921827 C50.8180757,54.8237827 49.8304,56.1428493 49.0900757,56.596116 L48.2667243,57.1325827 C48.0608865,57.256516 47.9787243,57.3795827 48.1430486,57.750516 C49.5424,60.678116 51.5584,63.2763827 52.9984,64.4307827 C54.3562378,65.5444493 55.4260757,65.8330493 55.5912649,65.8737827 C55.7555892,65.914516 55.7962378,66.1623827 55.673427,66.2039827 C55.5082378,66.286316 54.809427,66.4509827 53.945427,66.4509827 C52.4224,66.4509827 50.8595892,65.956116 49.9116973,65.1310493 C48.3904,63.6880493 47.3205622,61.7510493 46.0864,59.3590493 C45.715373,58.5755827 45.427373,58.4932493 44.9750486,58.5339827 C44.3990486,58.5755827 43.7408865,58.657916 43.0818595,58.657916 C42.8768865,58.657916 42.835373,58.7402493 42.835373,59.523716 L42.835373,61.255316 C42.835373,62.5752493 42.8768865,63.028516 42.9590486,63.5233827 C43.2055351,64.8424493 43.4935351,65.2133827 45.3045622,65.709116 C45.7568865,65.8330493 45.7568865,66.244716 45.2630486,66.244716 C44.1525622,66.244716 42.9590486,66.1216493 41.7655351,66.1216493 C40.531373,66.1216493 39.2556973,66.244716 38.1036973,66.244716 C37.6505081,66.244716 37.5692108,65.8330493 38.0206703,65.709116 C39.5843459,65.2965827 39.955373,64.9672493 40.1196973,63.7703827 C40.1612108,63.1931827 40.2840216,62.162716 40.2840216,60.5550493 L40.2840216,54.0810493 Z M42.835373,56.679316 C42.835373,57.1325827 42.8768865,57.256516 43.2055351,57.2972493 C43.7408865,57.3388493 44.2338595,57.3388493 45.0978595,57.3388493 C46.4565622,57.3388493 48.2260757,56.596116 48.2260757,54.2465827 C48.2260757,51.7722493 46.579373,49.586516 43.699373,49.586516 C43.123373,49.586516 43.0403459,49.7104493 42.9590486,49.9990493 C42.8768865,50.246916 42.835373,50.782516 42.835373,52.6787827 L42.835373,56.679316 Z" id="Fill-34"></path>
                <path d="M134.073514,21.8439093 C134.484324,22.1325093 134.526703,22.5034427 134.526703,22.7097093 C134.526703,22.915976 134.484324,23.1222427 134.402162,23.4524427 C134.361514,23.781776 134.279351,24.3182427 134.279351,25.0601093 C134.279351,25.513376 133.744,25.513376 133.703351,25.0185093 C133.661838,24.6883093 133.497514,24.1943093 132.962162,23.5755093 C132.263351,22.7504427 131.316324,22.338776 130.164324,22.338776 C128.764973,22.338776 127.736649,23.2869093 127.736649,24.936176 C127.736649,27.203376 129.423135,28.0700427 131.152,28.687976 C133.579676,29.553776 135.677838,30.4620427 135.677838,33.430376 C135.677838,35.739176 134.236973,37.3061093 133.127351,38.1303093 C131.850811,39.0793093 130.411676,39.532576 129.052973,39.532576 C127.736649,39.532576 126.666811,39.243976 125.884973,38.7898427 C125.144649,38.2958427 124.691459,37.800976 124.527135,37.223776 C124.444973,36.935176 124.650811,36.4819093 124.856649,36.1933093 C125.061622,35.8631093 125.39027,34.9557093 125.555459,34.5856427 C125.68,34.296176 126.049297,34.337776 126.090811,34.7078427 C126.090811,34.9557093 126.090811,35.3275093 126.378811,35.9454427 C126.913297,37.0591093 128.682811,38.047976 130.287135,38.047976 C132.221838,38.047976 133.332324,36.9759093 133.332324,34.873376 C133.332324,32.6885093 131.728,31.657176 129.547676,30.8737093 C126.748973,29.883976 125.432649,28.5649093 125.432649,26.4199093 C125.432649,25.3487093 125.761297,24.070376 126.996324,22.8752427 C127.983135,21.8855093 129.547676,21.0604427 131.316324,21.0604427 C132.920649,21.0604427 133.703351,21.5969093 134.073514,21.8439093" id="Fill-36"></path>
            </g>
        </g>
    </g>
</svg>