<svg width="118" height="93" viewBox="0 0 118 93" xmlns="http://www.w3.org/2000/svg"><title>Fill 5</title><path d="M118 44.115v-4.249h-8.61v-15.7h-4.446v19.95H118zm-28.541 0h13.056v-4.249h-8.61v-15.7h-4.446v19.95zm-2.393-9.98c0-5.745-4.657-10.404-10.403-10.404-5.745 0-10.404 4.659-10.404 10.404 0 5.746 4.659 10.403 10.404 10.403 5.746 0 10.403-4.657 10.403-10.403zm-4.494 0a5.908 5.908 0 1 1-11.817 0 5.908 5.908 0 0 1 11.817 0zm-9.446 26.323L65.64 48.331h-5.402v19.95h4.417V55.167l8.217 13.112h4.699V48.33h-4.446v12.128zM64.43 44.115l-4.052-8.075c2.448-.873 3.94-2.927 3.94-5.628 0-3.546-2.533-6.246-6.472-6.246H49.94v19.95h4.446v-7.43h1.575l3.574 7.43h4.896zM59.815 30.44c0 1.407-.984 2.42-2.813 2.42h-2.617v-4.84h2.617c1.829 0 2.813.929 2.813 2.42zm-21.21-10.49h12.662v-4.22h-8.216v-3.828h7.428v-3.91H43.05v-3.8h8.188V0H38.605v19.95zm-7.146 0h4.474V0h-4.474v7.822h-7.963V0H19.05v19.95h4.446v-7.935h7.963v7.935zM10.58 4.249h6.162V0H0v4.249h6.134v15.7h4.446V4.25zm6.162 68.247H0v4.249h6.134v15.7h4.446v-15.7h6.162v-4.25zm-5.89-3.788a10.36 10.36 0 0 0 6.637-2.392v1.964h3.566V57.812h-9.46v3.566h4.297a5.898 5.898 0 0 1-5.04 2.835 5.908 5.908 0 0 1 0-11.816c2.174 0 4.058 1.182 5.084 2.929h4.854c-1.284-4.288-5.231-7.425-9.937-7.425C5.107 47.901.45 52.56.45 58.305c0 5.745 4.657 10.403 10.403 10.403zm20.857 3.788H19.075v19.95h12.662v-4.221H23.52v-3.827h7.428v-3.911h-7.428v-3.799h8.188v-4.192zM50.204 48.33h-4.728l-4.755 14.04-4.811-14.04h-4.896l7.315 19.95h4.587l7.288-19.95zM35.055 24.166H29.85l6.922 11.62v8.33h4.445v-8.33l7.007-11.62h-4.952l-4.137 7.4-4.08-7.4zM24.025 68.28h4.502V48.33h-4.502v19.95zm-2.49-44.114l-7.513 19.95h4.67l1.436-4.053h7.71l1.435 4.052h4.84l-7.43-19.95h-5.148zm.056 11.846l2.448-6.895 2.392 6.895h-4.84zM6.078 44.115V36.94h3.067c4.052 0 6.838-2.617 6.838-6.388 0-3.714-2.786-6.386-6.838-6.386H1.632v19.95h4.446zm.028-16.095h2.589c1.688 0 2.842.957 2.842 2.56 0 1.548-1.154 2.533-2.842 2.533H6.106V28.02zm35.062 44.476l-7.512 19.95h4.67l1.435-4.052h7.71l1.435 4.052h4.84l-7.428-19.95h-5.15zm.057 11.846l2.448-6.894 2.392 6.894h-4.84zM52.717 68.28h4.502V48.33h-4.502v19.95zm9.05 4.216h-5.796v19.95h4.221V79.39l5.206 13.056H69l5.205-13.225v13.225h4.361v-19.95H72.46l-5.205 13.478-5.487-13.478zM80.17 58.305c0 5.745 4.658 10.403 10.403 10.403 2.523 0 4.835-.899 6.636-2.392v1.964h3.566V57.812h-9.46v3.566h4.297a5.898 5.898 0 0 1-5.039 2.835 5.908 5.908 0 0 1 0-11.816c2.173 0 4.057 1.182 5.083 2.929h4.854c-1.284-4.288-5.23-7.425-9.937-7.425-5.745 0-10.403 4.658-10.403 10.404z" fill="#FFF" fill-rule="evenodd"/></svg>