<?xml version="1.0" encoding="utf-8"?>
<!-- Generator: Adobe Illustrator 19.2.0, SVG Export Plug-In . SVG Version: 6.00 Build 0)  -->
<svg version="1.1" id="Layer_1" xmlns="http://www.w3.org/2000/svg" xmlns:xlink="http://www.w3.org/1999/xlink" x="0px" y="0px"
	 viewBox="0 0 125 125" style="enable-background:new 0 0 125 125;" xml:space="preserve">
<style type="text/css">
	.st0{fill-rule:evenodd;clip-rule:evenodd;fill:#181616;}
	.st1{fill:#181616;}
</style>
<g>
	<path class="st0" d="M62.5,4c-33.1,0-60,26.9-60,60c0,26.5,17.2,49,41,56.9c3,0.6,4.1-1.3,4.1-2.9c0-1.4-0.1-6.2-0.1-11.2
		c-16.7,3.6-20.2-7.1-20.2-7.1c-2.7-6.9-6.7-8.8-6.7-8.8c-5.4-3.7,0.4-3.6,0.4-3.6c6,0.4,9.2,6.2,9.2,6.2c5.4,9.2,14,6.5,17.5,5
		c0.5-3.9,2.1-6.5,3.8-8C38.2,89,24.2,83.8,24.2,60.8c0-6.6,2.3-11.9,6.2-16.1c-0.6-1.5-2.7-7.6,0.6-15.9c0,0,5-1.6,16.5,6.2
		c4.8-1.3,9.9-2,15-2c5.1,0,10.2,0.7,15,2C89,27.3,94,28.9,94,28.9c3.3,8.3,1.2,14.4,0.6,15.9c3.8,4.2,6.2,9.6,6.2,16.1
		c0,23-14,28.1-27.4,29.6c2.2,1.9,4.1,5.5,4.1,11.1c0,8-0.1,14.5-0.1,16.5c0,1.6,1.1,3.5,4.1,2.9c23.8-7.9,41-30.4,41-56.9
		C122.5,30.8,95.6,4,62.5,4z"/>
	<path class="st1" d="M25.2,90.1c-0.1,0.3-0.6,0.4-1,0.2c-0.4-0.2-0.7-0.6-0.5-0.9c0.1-0.3,0.6-0.4,1-0.2
		C25.1,89.4,25.4,89.8,25.2,90.1L25.2,90.1z M24.5,89.6"/>
	<path class="st1" d="M27.7,92.8c-0.3,0.3-0.8,0.1-1.2-0.3c-0.4-0.4-0.5-1-0.2-1.2c0.3-0.3,0.8-0.1,1.2,0.3
		C27.9,92,28,92.6,27.7,92.8L27.7,92.8z M27.1,92.2"/>
	<path class="st1" d="M30,96.3c-0.4,0.3-1,0-1.3-0.5c-0.4-0.5-0.4-1.2,0-1.4c0.4-0.3,1,0,1.3,0.5C30.4,95.4,30.4,96,30,96.3L30,96.3
		z M30,96.3"/>
	<path class="st1" d="M33.3,99.6c-0.3,0.4-1,0.3-1.5-0.2c-0.5-0.5-0.7-1.2-0.3-1.5c0.3-0.4,1-0.3,1.6,0.2
		C33.5,98.6,33.6,99.3,33.3,99.6L33.3,99.6z M33.3,99.6"/>
	<path class="st1" d="M37.7,101.6c-0.1,0.5-0.8,0.7-1.5,0.5c-0.7-0.2-1.1-0.8-1-1.2c0.1-0.5,0.8-0.7,1.5-0.5
		C37.4,100.5,37.9,101.1,37.7,101.6L37.7,101.6z M37.7,101.6"/>
	<path class="st1" d="M42.6,101.9c0,0.5-0.6,0.9-1.3,0.9c-0.7,0-1.3-0.4-1.3-0.9c0-0.5,0.6-0.9,1.3-0.9
		C42.1,101,42.6,101.4,42.6,101.9L42.6,101.9z M42.6,101.9"/>
	<path class="st1" d="M47.2,101.2c0.1,0.5-0.4,1-1.1,1.1c-0.7,0.1-1.3-0.2-1.4-0.6c-0.1-0.5,0.4-1,1.1-1.1
		C46.5,100.4,47.1,100.7,47.2,101.2L47.2,101.2z M47.2,101.2"/>
</g>
</svg>
