<?xml version="1.0" encoding="UTF-8" standalone="no"?>
<svg width="258px" height="30px" viewBox="0 0 258 30" version="1.1" xmlns="http://www.w3.org/2000/svg" xmlns:xlink="http://www.w3.org/1999/xlink">
    <defs></defs>
    <g id="Visuals" stroke="none" stroke-width="1" fill="none" fill-rule="evenodd">
        <g id="2" transform="translate(-861.000000, -34.000000)" fill="#A31D36">
            <path d="M871.514636,48.552 C871.094634,48.552 870.394641,48.5450001 869.414636,48.531 C868.434631,48.5169999 867.734638,48.51 867.314636,48.51 C867.174635,48.51 867.104636,48.5939992 867.104636,48.762 L867.104636,57.582 C867.132636,58.9260067 867.230635,59.7659983 867.398636,60.102 C867.734638,61.0820049 868.47663,61.572 869.624636,61.572 C870.49264,61.572 871.262633,61.3480022 871.934636,60.9 C871.962636,60.9280001 871.962636,61.0329991 871.934636,61.215 C871.906636,61.3970009 871.878636,61.5299996 871.850636,61.614 C870.926632,62.8460062 869.638644,63.462 867.986636,63.462 C866.362628,63.462 865.270639,62.8740059 864.710636,61.698 C864.346634,60.9699964 864.164636,59.3740123 864.164636,56.91 C864.164636,56.1259961 864.171636,54.7120102 864.185636,52.668 C864.199636,50.6239898 864.206636,49.3500025 864.206636,48.846 C864.206636,48.6779992 864.150637,48.5800001 864.038636,48.552 C863.982636,48.5239999 863.282643,48.4680004 861.938636,48.384 L862.274636,47.376 C863.394642,47.179999 863.996636,47.0680001 864.080636,47.04 C864.164637,46.9839997 864.206636,46.9000006 864.206636,46.788 L864.206636,43.47 C864.598638,43.3019992 865.095633,42.9730024 865.697636,42.483 C866.299639,41.9929975 866.684635,41.6220013 866.852636,41.37 C866.936637,41.3419999 867.104635,41.3699996 867.356636,41.454 C867.188635,42.2380039 867.104636,43.9879864 867.104636,46.704 C867.104636,46.8720008 867.174635,46.956 867.314636,46.956 C869.666648,46.956 871.178633,46.9000006 871.850636,46.788 C871.682635,47.4600034 871.570636,48.0479975 871.514636,48.552 L871.514636,48.552 Z M872.861182,36.036 C872.833181,35.9799997 872.819182,35.8820007 872.819182,35.742 C872.819182,35.6019993 872.833181,35.5040003 872.861182,35.448 C875.017192,35.3079993 876.935173,34.8600038 878.615182,34.104 C878.727182,34.1600003 878.783182,34.285999 878.783182,34.482 C878.559181,34.874002 878.433182,36.0919898 878.405182,38.136 L878.405182,48.888 C878.405182,48.9720004 878.461181,48.9860003 878.573182,48.93 C880.785193,47.2219915 882.703174,46.368 884.327182,46.368 C885.867189,46.368 887.057177,46.9349943 887.897182,48.069 C888.737186,49.2030057 889.157182,50.8199895 889.157182,52.92 C889.157182,57.0920209 889.171181,59.7939938 889.199182,61.026 C889.199182,61.3620017 889.297181,61.627999 889.493182,61.824 C889.857183,62.1040014 890.571176,62.3139993 891.635182,62.454 C891.663182,62.5380004 891.663182,62.6639992 891.635182,62.832 C891.607181,63.0000008 891.565182,63.0979999 891.509182,63.126 C891.425181,63.126 890.921186,63.1050002 889.997182,63.063 C889.073177,63.0209998 888.247185,63 887.519182,63 C886.203175,63 884.957188,63.0419996 883.781182,63.126 C883.725181,63.0979999 883.697182,62.9930009 883.697182,62.811 C883.697182,62.6289991 883.725181,62.5100003 883.781182,62.454 C884.789187,62.2859992 885.335181,62.1740003 885.419182,62.118 C885.699183,61.9779993 885.888181,61.7820013 885.986182,61.53 C886.084182,61.2779987 886.147181,60.7180043 886.175182,59.85 C886.259182,55.2859772 886.189183,52.4300057 885.965182,51.282 C885.797181,50.5259962 885.405185,49.847003 884.789182,49.245 C884.173179,48.642997 883.277188,48.342 882.101182,48.342 C880.869175,48.342 879.805186,48.7339961 878.909182,49.518 C878.57318,49.7700013 878.405182,50.091998 878.405182,50.484 C878.405182,56.280029 878.433181,59.5559962 878.489182,60.312 C878.545182,60.9560032 878.643181,61.4039987 878.783182,61.656 C878.923182,61.9080013 879.18918,62.0899994 879.581182,62.202 C879.973184,62.2860004 880.435179,62.3699996 880.967182,62.454 C881.023182,62.5100003 881.051182,62.6149992 881.051182,62.769 C881.051182,62.9230008 881.023182,63.0279997 880.967182,63.084 L879.581182,63.042 C878.657177,63.0139999 877.719186,63 876.767182,63 C876.067178,63 875.325186,63.0209998 874.541182,63.063 C873.757178,63.1050002 873.281182,63.126 873.113182,63.126 C873.085181,63.0699997 873.071182,62.9580008 873.071182,62.79 C873.071182,62.6219992 873.099181,62.5100003 873.155182,62.454 C873.883185,62.3419994 874.345181,62.2580003 874.541182,62.202 C875.101184,62.0339992 875.395181,61.3760057 875.423182,60.228 C875.479182,59.5559966 875.507182,57.1620206 875.507182,53.046 C875.507182,43.7779537 875.437182,38.5280062 875.297182,37.296 C875.213181,36.7359972 874.933184,36.3860007 874.457182,36.246 C874.317181,36.2179999 873.785186,36.1480006 872.861182,36.036 L872.861182,36.036 Z M907.345727,59.388 C907.457728,59.388 907.513727,59.4299996 907.513727,59.514 C907.569727,59.7660013 907.541728,60.0039989 907.429727,60.228 C905.413717,62.4120109 903.229739,63.504 900.877727,63.504 C898.805717,63.504 897.167733,62.8320067 895.963727,61.488 C894.50772,59.9199922 893.779727,57.7780136 893.779727,55.062 C893.779727,51.6739831 894.983715,49.2240076 897.391727,47.712 C897.95173,47.3479982 898.665723,47.0330013 899.533727,46.767 C900.401731,46.5009987 901.115724,46.368 901.675727,46.368 C902.879733,46.368 903.908723,46.7249964 904.762727,47.439 C905.616731,48.1530036 906.204726,48.8949961 906.526727,49.665 C906.848729,50.4350039 907.079726,51.2399958 907.219727,52.08 C907.275727,52.276001 907.443726,52.3879999 907.723727,52.416 C907.807728,52.6960014 907.751728,52.8779996 907.555727,52.962 C906.07172,53.4660025 902.501755,53.7879993 896.845727,53.928 C896.677726,53.928 896.593727,54.0819985 896.593727,54.39 C896.649727,56.2660094 897.167722,57.805994 898.147727,59.01 C899.295733,60.4380071 900.835717,61.152 902.767727,61.152 C904.587736,61.152 906.113721,60.5640059 907.345727,59.388 L907.345727,59.388 Z M900.331727,47.46 C899.351722,47.46 898.52573,47.9149954 897.853727,48.825 C897.181724,49.7350045 896.803728,51.0019919 896.719727,52.626 C896.719727,52.7940008 896.761727,52.878 896.845727,52.878 C897.46173,52.9340003 898.693718,52.9270004 900.541727,52.857 C902.389736,52.7869996 903.523725,52.6960006 903.943727,52.584 C904.111728,52.4999996 904.195727,52.3880007 904.195727,52.248 C904.055726,50.9879937 903.65673,49.8750048 902.998727,48.909 C902.340724,47.9429952 901.451733,47.46 900.331727,47.46 L900.331727,47.46 Z M939.102818,43.554 C938.906817,41.9859922 938.64782,40.8590034 938.325818,40.173 C938.003816,39.4869966 937.478822,38.9620018 936.750818,38.598 C935.434811,37.9259966 933.670829,37.59 931.458818,37.59 C928.350803,37.59 925.914827,38.6469894 924.150818,40.761 C922.386809,42.8750106 921.504818,45.8079812 921.504818,49.56 C921.504818,53.5080197 922.519808,56.6509883 924.549818,58.989 C926.579828,61.3270117 929.3588,62.496 932.886818,62.496 C935.042829,62.496 936.708812,61.9360056 937.884818,60.816 C938.724822,59.9759958 939.634813,58.6880087 940.614818,56.952 C940.670818,56.9239999 940.782817,56.9519996 940.950818,57.036 C941.118819,57.1200004 941.216818,57.2039996 941.244818,57.288 C940.964817,58.3520053 940.488821,59.485994 939.816818,60.69 C939.144815,61.894006 938.57082,62.6219987 938.094818,62.874 C936.190809,63.4620029 934.174829,63.756 932.046818,63.756 C927.510795,63.756 923.989831,62.559012 921.483818,60.165 C918.977806,57.770988 917.724818,54.3620221 917.724818,49.938 C917.724818,47.529988 918.270813,45.32501 919.362818,43.323 C920.454824,41.32099 922.092807,39.7320059 924.276818,38.556 C926.62883,37.2679936 929.498801,36.624 932.886818,36.624 C934.090824,36.624 935.651808,36.7569987 937.569818,37.023 C939.487828,37.2890013 940.516817,37.422 940.656818,37.422 C940.208816,39.214009 939.956818,41.2299888 939.900818,43.47 C939.872818,43.5260003 939.788819,43.5679999 939.648818,43.596 C939.508817,43.6240001 939.382819,43.638 939.270818,43.638 C939.158818,43.638 939.102818,43.6100003 939.102818,43.554 L939.102818,43.554 Z M942.843364,36.036 C942.815363,35.9799997 942.801364,35.8820007 942.801364,35.742 C942.801364,35.6019993 942.815363,35.5040003 942.843364,35.448 C944.999374,35.3079993 946.917355,34.8600038 948.597364,34.104 C948.709364,34.1600003 948.765364,34.285999 948.765364,34.482 C948.541362,34.874002 948.415364,36.0919898 948.387364,38.136 L948.387364,48.888 C948.387364,48.9720004 948.443363,48.9860003 948.555364,48.93 C950.767375,47.2219915 952.685355,46.368 954.309364,46.368 C955.849371,46.368 957.039359,46.9349943 957.879364,48.069 C958.719368,49.2030057 959.139364,50.8199895 959.139364,52.92 C959.139364,57.0920209 959.153363,59.7939938 959.181364,61.026 C959.181364,61.3620017 959.279363,61.627999 959.475364,61.824 C959.839365,62.1040014 960.553358,62.3139993 961.617364,62.454 C961.645364,62.5380004 961.645364,62.6639992 961.617364,62.832 C961.589363,63.0000008 961.547364,63.0979999 961.491364,63.126 C961.407363,63.126 960.903368,63.1050002 959.979364,63.063 C959.055359,63.0209998 958.229367,63 957.501364,63 C956.185357,63 954.939369,63.0419996 953.763364,63.126 C953.707363,63.0979999 953.679364,62.9930009 953.679364,62.811 C953.679364,62.6289991 953.707363,62.5100003 953.763364,62.454 C954.771369,62.2859992 955.317363,62.1740003 955.401364,62.118 C955.681365,61.9779993 955.870363,61.7820013 955.968364,61.53 C956.066364,61.2779987 956.129363,60.7180043 956.157364,59.85 C956.241364,55.2859772 956.171365,52.4300057 955.947364,51.282 C955.779363,50.5259962 955.387367,49.847003 954.771364,49.245 C954.15536,48.642997 953.259369,48.342 952.083364,48.342 C950.851357,48.342 949.787368,48.7339961 948.891364,49.518 C948.555362,49.7700013 948.387364,50.091998 948.387364,50.484 C948.387364,56.280029 948.415363,59.5559962 948.471364,60.312 C948.527364,60.9560032 948.625363,61.4039987 948.765364,61.656 C948.905364,61.9080013 949.171362,62.0899994 949.563364,62.202 C949.955366,62.2860004 950.417361,62.3699996 950.949364,62.454 C951.005364,62.5100003 951.033364,62.6149992 951.033364,62.769 C951.033364,62.9230008 951.005364,63.0279997 950.949364,63.084 L949.563364,63.042 C948.639359,63.0139999 947.701368,63 946.749364,63 C946.04936,63 945.307367,63.0209998 944.523364,63.063 C943.73936,63.1050002 943.263364,63.126 943.095364,63.126 C943.067363,63.0699997 943.053364,62.9580008 943.053364,62.79 C943.053364,62.6219992 943.081363,62.5100003 943.137364,62.454 C943.865367,62.3419994 944.327363,62.2580003 944.523364,62.202 C945.083366,62.0339992 945.377363,61.3760057 945.405364,60.228 C945.461364,59.5559966 945.489364,57.1620206 945.489364,53.046 C945.489364,43.7779537 945.419364,38.5280062 945.279364,37.296 C945.195363,36.7359972 944.915366,36.3860007 944.439364,36.246 C944.299363,36.2179999 943.767368,36.1480006 942.843364,36.036 L942.843364,36.036 Z M971.909909,52.122 C971.909909,51.1699952 971.671911,50.3720032 971.195909,49.728 C970.439905,48.6639947 969.333916,48.132 967.877909,48.132 C967.261906,48.132 966.757911,48.2579987 966.365909,48.51 C965.721906,48.9580022 965.161911,49.9659922 964.685909,51.534 C964.657909,51.5620001 964.57391,51.5410003 964.433909,51.471 C964.293908,51.4009997 964.16791,51.2960007 964.055909,51.156 C963.943908,51.0159993 963.887909,50.8900006 963.887909,50.778 C963.887909,50.5539989 963.985908,50.1900025 964.181909,49.686 C964.37791,49.1819975 964.531908,48.8740006 964.643909,48.762 C965.483913,48.1179968 966.442904,47.5580024 967.520909,47.082 C968.598914,46.6059976 969.417906,46.368 969.977909,46.368 C971.657917,46.368 972.931905,47.067993 973.799909,48.468 C974.387912,49.3640045 974.681909,50.7359908 974.681909,52.584 C974.681909,53.3680039 974.660909,54.5999916 974.618909,56.28 C974.576909,57.9600084 974.555909,59.0379976 974.555909,59.514 C974.555909,60.7460062 975.059904,61.362 976.067909,61.362 C976.599912,61.362 977.075907,61.2920007 977.495909,61.152 C977.495909,61.6000022 977.43991,61.8799994 977.327909,61.992 C976.431905,63.000005 975.339915,63.504 974.051909,63.504 C973.099904,63.504 972.441911,63.1680034 972.077909,62.496 C971.937908,62.2439987 971.839909,61.8800024 971.783909,61.404 C971.783909,61.3759999 971.762909,61.3480001 971.720909,61.32 C971.678909,61.2919999 971.643909,61.2919999 971.615909,61.32 C969.459898,62.7760073 967.905914,63.504 966.953909,63.504 C966.141905,63.504 965.427912,63.1960031 964.811909,62.58 C963.887904,61.6559954 963.425909,60.4520074 963.425909,58.968 C963.425909,58.2399964 963.579907,57.5680031 963.887909,56.952 C964.279911,56.7279989 965.553898,56.2660035 967.709909,55.566 C969.86592,54.8659965 971.181907,54.3900013 971.657909,54.138 C971.82591,54.0539996 971.909909,53.9280008 971.909909,53.76 L971.909909,52.122 Z M971.867909,55.062 C971.867909,55.0339999 971.853909,55.0060001 971.825909,54.978 C971.797909,54.9499999 971.769909,54.9499999 971.741909,54.978 C968.661894,55.986005 966.953911,56.6579983 966.617909,56.994 C966.421908,57.190001 966.323909,57.6239966 966.323909,58.296 C966.323909,59.1920045 966.589906,59.9269971 967.121909,60.501 C967.653912,61.0750029 968.353905,61.362 969.221909,61.362 C969.977913,61.362 970.705906,61.1520021 971.405909,60.732 C971.65791,60.535999 971.783909,60.242002 971.783909,59.85 C971.839909,58.1139913 971.867909,56.5180073 971.867909,55.062 L971.867909,55.062 Z M988.712455,46.368 C989.524459,46.368 990.112453,46.6619971 990.476455,47.25 C990.504455,47.2780001 990.518455,47.3689992 990.518455,47.523 C990.518455,47.6770008 990.504455,47.7959996 990.476455,47.88 C990.448454,48.1040011 990.287456,48.4749974 989.993455,48.993 C989.699453,49.5110026 989.440456,49.8959987 989.216455,50.148 C989.020454,50.2320004 988.908455,50.274 988.880455,50.274 C988.180451,49.5179962 987.368459,49.14 986.444455,49.14 C985.716451,49.14 985.002458,49.7139943 984.302455,50.862 C984.050453,51.3660025 983.924455,51.9259969 983.924455,52.542 C983.924455,57.134023 983.966454,59.8499958 984.050455,60.69 C984.078455,61.4460038 984.344452,61.921999 984.848455,62.118 C985.520458,62.2860008 986.248451,62.3979997 987.032455,62.454 C987.088455,62.5100003 987.102455,62.6289991 987.074455,62.811 C987.046454,62.9930009 987.004455,63.0979999 986.948455,63.126 C986.836454,63.126 986.25546,63.1050002 985.205455,63.063 C984.155449,63.0209998 983.322458,63 982.706455,63 C981.446448,63 980.102462,63.0419996 978.674455,63.126 C978.618454,63.0979999 978.590455,62.9930009 978.590455,62.811 C978.590455,62.6289991 978.618454,62.5100003 978.674455,62.454 C979.262457,62.3979997 979.780452,62.3000007 980.228455,62.16 C980.648457,61.963999 980.872454,61.5720029 980.900455,60.984 C981.012455,60.3399968 981.068455,57.8480217 981.068455,53.508 C981.068455,51.5199901 981.040455,50.3440018 980.984455,49.98 C980.900454,49.2239962 980.214461,48.6920015 978.926455,48.384 C978.926455,48.0479983 978.968454,47.8660001 979.052455,47.838 C980.872464,47.641999 982.454448,47.1380041 983.798455,46.326 C983.910455,46.326 983.966455,46.3679996 983.966455,46.452 C983.938454,46.9560025 983.924455,48.1179909 983.924455,49.938 C983.924455,49.9660001 983.945454,49.9869999 983.987455,50.001 C984.029455,50.0150001 984.064454,50.0080001 984.092455,49.98 C984.960459,48.8039941 985.786451,47.8940032 986.570455,47.25 C987.298458,46.6619971 988.012451,46.368 988.712455,46.368 L988.712455,46.368 Z M1001.651,48.552 C1001.231,48.552 1000.531,48.5450001 999.551,48.531 C998.570995,48.5169999 997.871002,48.51 997.451,48.51 C997.310999,48.51 997.241,48.5939992 997.241,48.762 L997.241,57.582 C997.269,58.9260067 997.366999,59.7659983 997.535,60.102 C997.871002,61.0820049 998.612994,61.572 999.761,61.572 C1000.629,61.572 1001.399,61.3480022 1002.071,60.9 C1002.099,60.9280001 1002.099,61.0329991 1002.071,61.215 C1002.043,61.3970009 1002.015,61.5299996 1001.987,61.614 C1001.063,62.8460062 999.775008,63.462 998.123,63.462 C996.498992,63.462 995.407003,62.8740059 994.847,61.698 C994.482998,60.9699964 994.301,59.3740123 994.301,56.91 C994.301,56.1259961 994.308,54.7120102 994.322,52.668 C994.336,50.6239898 994.343,49.3500025 994.343,48.846 C994.343,48.6779992 994.287001,48.5800001 994.175,48.552 C994.119,48.5239999 993.419007,48.4680004 992.075,48.384 L992.411,47.376 C993.531006,47.179999 994.133,47.0680001 994.217,47.04 C994.301,46.9839997 994.343,46.9000006 994.343,46.788 L994.343,43.47 C994.735002,43.3019992 995.231997,42.9730024 995.834,42.483 C996.436003,41.9929975 996.820999,41.6220013 996.989,41.37 C997.073,41.3419999 997.240999,41.3699996 997.493,41.454 C997.324999,42.2380039 997.241,43.9879864 997.241,46.704 C997.241,46.8720008 997.310999,46.956 997.451,46.956 C999.803012,46.956 1001.315,46.9000006 1001.987,46.788 C1001.819,47.4600034 1001.707,48.0479975 1001.651,48.552 L1001.651,48.552 Z M1017.02555,59.388 C1017.13755,59.388 1017.19355,59.4299996 1017.19355,59.514 C1017.24955,59.7660013 1017.22155,60.0039989 1017.10955,60.228 C1015.09354,62.4120109 1012.90956,63.504 1010.55755,63.504 C1008.48554,63.504 1006.84755,62.8320067 1005.64355,61.488 C1004.18754,59.9199922 1003.45955,57.7780136 1003.45955,55.062 C1003.45955,51.6739831 1004.66353,49.2240076 1007.07155,47.712 C1007.63155,47.3479982 1008.34554,47.0330013 1009.21355,46.767 C1010.08155,46.5009987 1010.79554,46.368 1011.35555,46.368 C1012.55955,46.368 1013.58854,46.7249964 1014.44255,47.439 C1015.29655,48.1530036 1015.88454,48.8949961 1016.20655,49.665 C1016.52855,50.4350039 1016.75954,51.2399958 1016.89955,52.08 C1016.95555,52.276001 1017.12354,52.3879999 1017.40355,52.416 C1017.48755,52.6960014 1017.43155,52.8779996 1017.23555,52.962 C1015.75154,53.4660025 1012.18157,53.7879993 1006.52555,53.928 C1006.35754,53.928 1006.27355,54.0819985 1006.27355,54.39 C1006.32955,56.2660094 1006.84754,57.805994 1007.82755,59.01 C1008.97555,60.4380071 1010.51554,61.152 1012.44755,61.152 C1014.26755,61.152 1015.79354,60.5640059 1017.02555,59.388 L1017.02555,59.388 Z M1010.01155,47.46 C1009.03154,47.46 1008.20555,47.9149954 1007.53355,48.825 C1006.86154,49.7350045 1006.48355,51.0019919 1006.39955,52.626 C1006.39955,52.7940008 1006.44155,52.878 1006.52555,52.878 C1007.14155,52.9340003 1008.37354,52.9270004 1010.22155,52.857 C1012.06955,52.7869996 1013.20354,52.6960006 1013.62355,52.584 C1013.79155,52.4999996 1013.87555,52.3880007 1013.87555,52.248 C1013.73554,50.9879937 1013.33655,49.8750048 1012.67855,48.909 C1012.02054,47.9429952 1011.13155,47.46 1010.01155,47.46 L1010.01155,47.46 Z M1029.12409,46.368 C1029.9361,46.368 1030.52409,46.6619971 1030.88809,47.25 C1030.91609,47.2780001 1030.93009,47.3689992 1030.93009,47.523 C1030.93009,47.6770008 1030.91609,47.7959996 1030.88809,47.88 C1030.86009,48.1040011 1030.69909,48.4749974 1030.40509,48.993 C1030.11109,49.5110026 1029.85209,49.8959987 1029.62809,50.148 C1029.43209,50.2320004 1029.32009,50.274 1029.29209,50.274 C1028.59209,49.5179962 1027.7801,49.14 1026.85609,49.14 C1026.12809,49.14 1025.41409,49.7139943 1024.71409,50.862 C1024.46209,51.3660025 1024.33609,51.9259969 1024.33609,52.542 C1024.33609,57.134023 1024.37809,59.8499958 1024.46209,60.69 C1024.49009,61.4460038 1024.75609,61.921999 1025.26009,62.118 C1025.93209,62.2860008 1026.66009,62.3979997 1027.44409,62.454 C1027.50009,62.5100003 1027.51409,62.6289991 1027.48609,62.811 C1027.45809,62.9930009 1027.41609,63.0979999 1027.36009,63.126 C1027.24809,63.126 1026.6671,63.1050002 1025.61709,63.063 C1024.56709,63.0209998 1023.73409,63 1023.11809,63 C1021.85808,63 1020.5141,63.0419996 1019.08609,63.126 C1019.03009,63.0979999 1019.00209,62.9930009 1019.00209,62.811 C1019.00209,62.6289991 1019.03009,62.5100003 1019.08609,62.454 C1019.67409,62.3979997 1020.19209,62.3000007 1020.64009,62.16 C1021.06009,61.963999 1021.28409,61.5720029 1021.31209,60.984 C1021.42409,60.3399968 1021.48009,57.8480217 1021.48009,53.508 C1021.48009,51.5199901 1021.45209,50.3440018 1021.39609,49.98 C1021.31209,49.2239962 1020.6261,48.6920015 1019.33809,48.384 C1019.33809,48.0479983 1019.38009,47.8660001 1019.46409,47.838 C1021.2841,47.641999 1022.86608,47.1380041 1024.21009,46.326 C1024.32209,46.326 1024.37809,46.3679996 1024.37809,46.452 C1024.35009,46.9560025 1024.33609,48.1179909 1024.33609,49.938 C1024.33609,49.9660001 1024.35709,49.9869999 1024.39909,50.001 C1024.44109,50.0150001 1024.47609,50.0080001 1024.50409,49.98 C1025.3721,48.8039941 1026.19809,47.8940032 1026.98209,47.25 C1027.71009,46.6619971 1028.42409,46.368 1029.12409,46.368 L1029.12409,46.368 Z M1031.39464,36.036 C1031.36664,35.9799997 1031.35264,35.8820007 1031.35264,35.742 C1031.35264,35.6019993 1031.36664,35.5040003 1031.39464,35.448 C1033.55065,35.3079993 1035.46863,34.8600038 1037.14864,34.104 C1037.26064,34.1600003 1037.31664,34.285999 1037.31664,34.482 C1037.09264,34.874002 1036.96664,36.0919898 1036.93864,38.136 L1036.93864,48.888 C1036.93864,48.9720004 1036.99464,48.9860003 1037.10664,48.93 C1039.31865,47.2219915 1041.23663,46.368 1042.86064,46.368 C1044.40064,46.368 1045.59063,46.9349943 1046.43064,48.069 C1047.27064,49.2030057 1047.69064,50.8199895 1047.69064,52.92 C1047.69064,57.0920209 1047.70464,59.7939938 1047.73264,61.026 C1047.73264,61.3620017 1047.83064,61.627999 1048.02664,61.824 C1048.39064,62.1040014 1049.10463,62.3139993 1050.16864,62.454 C1050.19664,62.5380004 1050.19664,62.6639992 1050.16864,62.832 C1050.14064,63.0000008 1050.09864,63.0979999 1050.04264,63.126 C1049.95864,63.126 1049.45464,63.1050002 1048.53064,63.063 C1047.60663,63.0209998 1046.78064,63 1046.05264,63 C1044.73663,63 1043.49064,63.0419996 1042.31464,63.126 C1042.25864,63.0979999 1042.23064,62.9930009 1042.23064,62.811 C1042.23064,62.6289991 1042.25864,62.5100003 1042.31464,62.454 C1043.32264,62.2859992 1043.86864,62.1740003 1043.95264,62.118 C1044.23264,61.9779993 1044.42164,61.7820013 1044.51964,61.53 C1044.61764,61.2779987 1044.68064,60.7180043 1044.70864,59.85 C1044.79264,55.2859772 1044.72264,52.4300057 1044.49864,51.282 C1044.33064,50.5259962 1043.93864,49.847003 1043.32264,49.245 C1042.70663,48.642997 1041.81064,48.342 1040.63464,48.342 C1039.40263,48.342 1038.33864,48.7339961 1037.44264,49.518 C1037.10663,49.7700013 1036.93864,50.091998 1036.93864,50.484 C1036.93864,56.280029 1036.96664,59.5559962 1037.02264,60.312 C1037.07864,60.9560032 1037.17664,61.4039987 1037.31664,61.656 C1037.45664,61.9080013 1037.72263,62.0899994 1038.11464,62.202 C1038.50664,62.2860004 1038.96863,62.3699996 1039.50064,62.454 C1039.55664,62.5100003 1039.58464,62.6149992 1039.58464,62.769 C1039.58464,62.9230008 1039.55664,63.0279997 1039.50064,63.084 L1038.11464,63.042 C1037.19063,63.0139999 1036.25264,63 1035.30064,63 C1034.60063,63 1033.85864,63.0209998 1033.07464,63.063 C1032.29063,63.1050002 1031.81464,63.126 1031.64664,63.126 C1031.61864,63.0699997 1031.60464,62.9580008 1031.60464,62.79 C1031.60464,62.6219992 1031.63264,62.5100003 1031.68864,62.454 C1032.41664,62.3419994 1032.87864,62.2580003 1033.07464,62.202 C1033.63464,62.0339992 1033.92864,61.3760057 1033.95664,60.228 C1034.01264,59.5559966 1034.04064,57.1620206 1034.04064,53.046 C1034.04064,43.7779537 1033.97064,38.5280062 1033.83064,37.296 C1033.74664,36.7359972 1033.46664,36.3860007 1032.99064,36.246 C1032.85064,36.2179999 1032.31864,36.1480006 1031.39464,36.036 L1031.39464,36.036 Z M1061.13318,46.368 C1063.51319,46.368 1065.38218,47.1379923 1066.74018,48.678 C1068.09819,50.2180077 1068.77718,52.1779881 1068.77718,54.558 C1068.77718,56.0980077 1068.44819,57.5329933 1067.79018,58.863 C1067.13218,60.1930067 1066.18719,61.2499961 1064.95518,62.034 C1063.52717,63.0140049 1062.00119,63.504 1060.37718,63.504 C1058.50117,63.504 1056.94019,63.0560045 1055.69418,62.16 C1054.44818,61.2639955 1053.58018,60.1860063 1053.09018,58.926 C1052.60018,57.6659937 1052.35518,56.2800076 1052.35518,54.768 C1052.35518,51.8279853 1053.54517,49.560008 1055.92518,47.964 C1057.46519,46.8999947 1059.20117,46.368 1061.13318,46.368 L1061.13318,46.368 Z M1059.78918,47.502 C1058.89318,47.502 1058.19318,47.7119979 1057.68918,48.132 C1056.28917,49.0840048 1055.58918,50.9739859 1055.58918,53.802 C1055.58918,56.2940125 1056.12818,58.337992 1057.20618,59.934 C1058.28419,61.530008 1059.67717,62.328 1061.38518,62.328 C1062.44919,62.328 1063.30318,62.0200031 1063.94718,61.404 C1065.01119,60.3119945 1065.54318,58.464013 1065.54318,55.86 C1065.54318,53.4239878 1065.03219,51.4220078 1064.01018,49.854 C1062.98818,48.2859922 1061.58119,47.502 1059.78918,47.502 L1059.78918,47.502 Z M1070.83773,47.88 C1070.80973,47.8239997 1070.81673,47.7050009 1070.85873,47.523 C1070.90073,47.3409991 1070.93573,47.2360001 1070.96373,47.208 C1073.17574,47.208 1075.00972,46.9840022 1076.46573,46.536 C1076.32573,47.2920038 1076.25573,49.9099776 1076.25573,54.39 C1076.25573,56.798012 1076.32573,58.2819972 1076.46573,58.842 C1076.88573,60.5500085 1078.03372,61.404 1079.90973,61.404 C1081.08573,61.404 1082.17772,60.9980041 1083.18573,60.186 C1083.46573,59.989999 1083.63373,59.5980029 1083.68973,59.01 C1083.71773,58.5619978 1083.73173,57.141012 1083.73173,54.747 C1083.73173,52.352988 1083.70373,50.5960056 1083.64773,49.476 C1083.59173,48.8039966 1083.32573,48.3980007 1082.84973,48.258 C1082.54173,48.1739996 1081.65973,48.0480008 1080.20373,47.88 C1080.14773,47.8519999 1080.13373,47.740001 1080.16173,47.544 C1080.18973,47.347999 1080.23173,47.2360001 1080.28773,47.208 C1082.89174,47.208 1085.06172,46.9980021 1086.79773,46.578 C1086.68573,47.2780035 1086.62973,48.7619887 1086.62973,51.03 L1086.67173,59.346 C1086.67173,60.1860042 1086.75573,60.7389987 1086.92373,61.005 C1087.09173,61.2710013 1087.39973,61.404 1087.84773,61.404 C1087.98773,61.404 1088.42172,61.3760003 1089.14973,61.32 C1089.14973,61.7680022 1089.12173,62.0059999 1089.06573,62.034 C1087.16172,62.5660027 1085.45373,63.1259971 1083.94173,63.714 C1083.77373,63.714 1083.68973,63.6020011 1083.68973,63.378 L1083.68973,60.984 C1083.68973,60.9279997 1083.66173,60.8860001 1083.60573,60.858 C1083.54973,60.8299999 1083.49373,60.8299999 1083.43773,60.858 C1081.42172,62.6220088 1079.61574,63.504 1078.01973,63.504 C1074.85571,63.504 1073.27373,61.6420186 1073.27373,57.918 C1073.27373,53.0739758 1073.25973,50.3300032 1073.23173,49.686 C1073.17573,48.8459958 1072.97973,48.3560007 1072.64373,48.216 C1072.41973,48.1039994 1071.81773,47.9920006 1070.83773,47.88 L1070.83773,47.88 Z M1101.16427,46.746 C1100.94027,47.7260049 1100.78627,49.0839913 1100.70227,50.82 C1100.67427,50.8760003 1100.56227,50.9109999 1100.36627,50.925 C1100.17027,50.9390001 1100.05827,50.9180003 1100.03027,50.862 C1099.83427,49.0419909 1099.33028,47.9500018 1098.51827,47.586 C1097.95827,47.3059986 1097.34228,47.166 1096.67027,47.166 C1095.94227,47.166 1095.32628,47.3899978 1094.82227,47.838 C1094.31827,48.2860022 1094.06627,48.9159959 1094.06627,49.728 C1094.06627,50.5120039 1094.29027,51.1769973 1094.73827,51.723 C1095.18628,52.2690027 1096.13827,52.9059964 1097.59427,53.634 C1099.21828,54.4740042 1100.31727,55.2509964 1100.89127,55.965 C1101.46528,56.6790036 1101.75227,57.539995 1101.75227,58.548 C1101.75227,59.9760071 1101.17128,61.1589953 1100.00927,62.097 C1098.84727,63.0350047 1097.39828,63.504 1095.66227,63.504 C1094.15027,63.504 1092.76428,63.2380027 1091.50427,62.706 C1091.16827,61.4739938 1091.00027,60.0180084 1091.00027,58.338 C1091.02827,58.2819997 1091.12627,58.2330002 1091.29427,58.191 C1091.46227,58.1489998 1091.58827,58.1419999 1091.67227,58.17 C1092.09227,60.2140102 1092.94627,61.5579968 1094.23427,62.202 C1094.82228,62.5100015 1095.45227,62.664 1096.12427,62.664 C1096.96428,62.664 1097.65727,62.4260024 1098.20327,61.95 C1098.74928,61.4739976 1099.02227,60.8580038 1099.02227,60.102 C1099.02227,59.3459962 1098.80528,58.7090026 1098.37127,58.191 C1097.93727,57.6729974 1097.14628,57.0920032 1095.99827,56.448 C1094.29026,55.5519955 1093.12128,54.705004 1092.49127,53.907 C1091.86127,53.108996 1091.54627,52.1640055 1091.54627,51.072 C1091.54627,49.7559934 1092.05027,48.6430046 1093.05827,47.733 C1094.06628,46.8229954 1095.46626,46.368 1097.25827,46.368 C1098.09828,46.368 1098.89627,46.4379993 1099.65227,46.578 C1100.38028,46.6900006 1100.88427,46.746 1101.16427,46.746 L1101.16427,46.746 Z M1118.26082,59.388 C1118.37282,59.388 1118.42882,59.4299996 1118.42882,59.514 C1118.48482,59.7660013 1118.45682,60.0039989 1118.34482,60.228 C1116.32881,62.4120109 1114.14483,63.504 1111.79282,63.504 C1109.72081,63.504 1108.08282,62.8320067 1106.87882,61.488 C1105.42281,59.9199922 1104.69482,57.7780136 1104.69482,55.062 C1104.69482,51.6739831 1105.89881,49.2240076 1108.30682,47.712 C1108.86682,47.3479982 1109.58081,47.0330013 1110.44882,46.767 C1111.31682,46.5009987 1112.03082,46.368 1112.59082,46.368 C1113.79482,46.368 1114.82381,46.7249964 1115.67782,47.439 C1116.53182,48.1530036 1117.11982,48.8949961 1117.44182,49.665 C1117.76382,50.4350039 1117.99482,51.2399958 1118.13482,52.08 C1118.19082,52.276001 1118.35882,52.3879999 1118.63882,52.416 C1118.72282,52.6960014 1118.66682,52.8779996 1118.47082,52.962 C1116.98681,53.4660025 1113.41685,53.7879993 1107.76082,53.928 C1107.59282,53.928 1107.50882,54.0819985 1107.50882,54.39 C1107.56482,56.2660094 1108.08281,57.805994 1109.06282,59.01 C1110.21082,60.4380071 1111.75081,61.152 1113.68282,61.152 C1115.50283,61.152 1117.02881,60.5640059 1118.26082,59.388 L1118.26082,59.388 Z M1111.24682,47.46 C1110.26681,47.46 1109.44082,47.9149954 1108.76882,48.825 C1108.09682,49.7350045 1107.71882,51.0019919 1107.63482,52.626 C1107.63482,52.7940008 1107.67682,52.878 1107.76082,52.878 C1108.37682,52.9340003 1109.60881,52.9270004 1111.45682,52.857 C1113.30483,52.7869996 1114.43882,52.6960006 1114.85882,52.584 C1115.02682,52.4999996 1115.11082,52.3880007 1115.11082,52.248 C1114.97082,50.9879937 1114.57182,49.8750048 1113.91382,48.909 C1113.25582,47.9429952 1112.36682,47.46 1111.24682,47.46 L1111.24682,47.46 Z" id="the-Charterhouse-Copy"></path>
        </g>
    </g>
</svg>