<?xml version="1.0" encoding="UTF-8" standalone="no"?>
<svg width="386px" height="590px" viewBox="0 0 386 590" version="1.1" xmlns="http://www.w3.org/2000/svg" xmlns:xlink="http://www.w3.org/1999/xlink">
    <!-- Generator: Sketch 41 (35326) - http://www.bohemiancoding.com/sketch -->
    <title>Logo</title>
    <desc>Created with Sketch.</desc>
    <defs>
        <polygon id="path-1" points="0.126561572 44.8605557 341.488308 44.8605557 341.488308 0.0597221296 0.126561572 0.0597221296"></polygon>
    </defs>
    <g id="Page-1" stroke="none" stroke-width="1" fill="none" fill-rule="evenodd">
        <g id="2" transform="translate(-710.000000, 0.000000)">
            <g id="Logo" transform="translate(710.000000, -50.000000)">
                <g id="Group-3" transform="translate(76.467443, 276.474419)" fill="#D1A396">
                    <path d="M32.1820111,0.992348056 C32.2689047,-0.410626782 34.8053721,-0.147244957 35.5925873,0.730003168 C36.4708339,1.70679718 36.4677306,2.74580737 36.729446,5.0249934 C36.8639243,6.1956945 39.1304006,24.2363126 40.9272374,43.4227452 C42.6309738,61.614756 43.8650707,80.8976238 44.1629918,85.5907975 C44.7753852,95.2332683 45.2129569,108.12135 43.7254201,111.889576 C42.2389179,115.659877 39.2659133,119.604383 36.6425523,122.585575 C34.0171224,125.566766 29.6455437,130.212241 28.3338632,134.331989 C27.0221827,138.452774 26.7594329,144.589363 26.7594329,146.693307 C26.7594329,148.797251 28.3969646,192.275991 28.9462567,202.185991 C29.5586501,213.231437 32.2689047,229.888782 33.8423007,242.687687 C35.4177655,255.487628 36.2049807,267.497425 36.4677306,278.368665 C36.729446,289.238869 36.729446,299.758588 36.1170526,310.980312 C35.5056936,322.203074 33.755407,336.403917 31.7444394,338.594964 C29.9020869,340.602472 27.2838982,342.188985 23.1740349,342.188985 C19.0631372,342.188985 16.7914886,340.700981 15.0401676,338.945448 C12.4168066,336.315778 10.6675544,322.025758 9.96826735,310.80507 C9.29070368,299.942125 9.25967023,289.939838 9.44380204,278.71915 C9.61862381,268.025226 10.055161,254.61038 11.1920197,242.951068 C12.2368126,232.245738 15.2201616,213.48756 15.652561,202.097851 C16.0011701,192.894005 17.3149195,150.112086 17.3149195,146.606204 C17.3149195,143.099286 17.0521696,137.313181 15.7394547,134.244886 C14.4288086,131.176592 12.8533438,128.021195 9.61862381,124.689518 C6.38183494,121.357842 2.3474864,116.733106 1.04718483,111.014402 C-0.526211102,104.087668 0.15962815,96.2857587 0.347897749,86.3799061 C0.430653616,82.0309952 0.412033546,64.6011326 0.785469398,47.1930457 C1.20235208,27.746342 1.92232813,8.32659863 1.92232813,7.21707677 C1.92232813,5.11416992 2.18507801,3.09629184 2.70954332,2.30822024 C3.23400863,1.51807477 5.11153237,1.52325945 5.24601066,2.57056513 C5.37635115,3.60024289 6.9073347,37.9871251 7.25697824,47.2801483 C7.60662178,56.5742086 8.83140862,84.2749253 9.00623039,86.1165242 C9.18105216,87.9570862 9.09312405,89.8868247 10.8423762,89.8868247 C12.5916283,89.8868247 12.8533438,87.6066017 12.9402374,85.7660398 C13.0292,83.9254778 12.9402374,51.1375514 12.678522,40.7930747 C12.4012899,29.8316209 11.7175195,3.84184906 11.8923413,2.3528085 C12.0868176,0.696821205 13.9033088,0.773554493 14.1660587,2.22111759 C14.4494976,3.78170675 17.0521696,30.6238403 17.4897413,40.5296929 C17.9262785,50.4376194 19.8503524,83.2234719 20.0251741,84.8887916 C20.1999959,86.5541114 20.1131023,88.921437 22.1240698,88.8343343 C24.1360719,88.7461947 24.3977873,86.3799061 24.3977873,84.5383072 C24.3977873,82.6977452 23.9612501,49.1207103 23.6105721,40.3544507 C23.261963,31.588191 22.2119979,3.27153408 22.2119979,1.78145659 C22.2119979,0.291379105 24.5726091,-0.0591053701 24.7474308,1.78145659 C24.9232871,3.62201856 27.3718263,30.1852162 27.9842197,40.3544507 C28.5966131,50.5247221 30.6955088,81.8204971 30.8692961,84.3630649 C31.0451524,86.9056328 30.9561898,89.2719215 32.9692263,89.2719215 C34.9801939,89.2719215 35.2429437,85.941282 35.2429437,84.0996831 C35.2429437,82.2591211 34.2809068,53.1543926 33.755407,40.2663111 C33.2309417,27.3803035 32.094083,2.39635983 32.1820111,0.992348056" id="Fill-1"></path>
                </g>
                <path d="M143.881213,314.081585 C144.518433,312.643354 147.682811,310.610959 152.813675,312.901552 C157.944538,315.191107 160.109639,319.618825 160.563762,323.339353 C161.147191,328.132072 159.808614,348.650968 152.432998,368.923073 C148.765878,378.998983 144.467745,390.924788 138.353121,404.691154 C132.240566,418.456484 119.998904,440.725728 112.760869,453.355613 C108.458599,460.865106 104.835961,466.314206 103.692895,468.885808 C102.313975,471.989358 95.1276628,488.172824 91.018834,498.02994 C86.9131085,507.888094 74.807994,539.0107 70.8336435,549.3811 C66.8603274,559.752538 57.1665119,585.242506 53.3100885,594.939935 C49.4546995,604.639437 40.854296,623.187117 36.8592565,629.741591 C32.8631825,636.295029 30.4280911,638.924699 29.5136388,639.150751 C28.6002209,639.37784 23.9803746,638.584584 20.2067071,636.9006 C16.4351084,635.216615 12.6790265,633.087785 12.3531752,631.582153 C12.0262896,630.077559 12.869365,624.925022 14.7437854,618.057393 C16.7847519,610.580045 23.312121,593.879149 27.647494,584.121578 C31.9797637,574.364007 44.3248702,549.422578 49.1878119,539.084323 C54.0838559,528.672445 67.909258,500.404524 72.3987638,490.081823 C76.69069,480.216411 82.3098134,466.955033 84.300092,461.045533 C85.5248788,457.416255 87.7313571,450.69276 90.0309358,442.850411 C94.7811226,426.661761 98.2589379,416.795312 101.997434,407.769818 C105.735931,398.743288 119.566505,368.211735 125.118389,355.916781 C130.670273,343.62079 143.881213,314.081585 143.881213,314.081585" id="Fill-4" fill="#D1A396"></path>
                <path d="M49.8979606,284.58054 C49.2059147,283.357992 47.0418488,284.70912 46.7180664,285.843528 C46.3560095,287.107553 46.8142701,288.039759 47.5745897,290.203845 C47.9656111,291.314404 53.8174854,308.525473 60.5931221,326.559869 C67.0180807,343.658949 74.3409406,361.531584 76.125364,365.881532 C79.7924833,374.817849 85.036102,386.592261 88.0215199,389.327699 C91.0048689,392.0621 95.4023088,394.300845 99.064256,395.827215 C102.726203,397.353586 108.687729,399.607885 111.669009,402.734248 C114.651324,405.861648 117.569502,411.262013 118.490161,413.153384 C119.409786,415.043719 136.951961,454.841335 140.792868,463.990224 C145.072381,474.187456 149.919805,490.348109 154.103115,502.54559 C158.285389,514.740998 162.829721,525.880805 167.348191,535.766956 C171.866662,545.65207 176.466853,555.108929 181.924603,564.924568 C187.382352,574.742282 195.166576,586.737561 197.931656,587.823233 C200.466055,588.818692 203.511471,589.09348 207.20652,587.287137 C210.90157,585.481831 212.291868,583.145613 213.098738,580.79799 C214.306974,577.281739 209.629198,563.669876 205.35072,553.276663 C201.208789,543.216307 196.862037,534.211552 191.790137,524.20719 C186.95616,514.671524 180.697747,502.807935 174.575882,492.82846 C168.957793,483.665054 158.071258,468.116194 152.701437,458.070355 C148.362961,449.950107 128.473622,412.076008 126.941604,408.923721 C125.406483,405.772472 123.113111,400.457136 122.949668,397.122349 C122.78726,393.788599 122.821397,390.259904 124.273762,385.843593 C125.726128,381.426244 127.329523,375.498079 125.995084,369.785597 C124.381345,362.869231 120.353203,356.15818 115.851284,347.336962 C113.876522,343.466079 106.270223,327.790713 98.3225565,312.308217 C89.4428519,295.013156 80.3035008,277.875709 79.8173101,276.878177 C78.8966511,274.986805 77.7794469,273.290377 76.9632671,272.811312 C76.1460529,272.333285 74.4609366,273.162834 74.7981667,274.16244 C75.1322935,275.145456 88.7942528,306.724315 92.5441281,315.23134 C96.2929689,323.737329 107.30674,349.173377 107.954305,350.90506 C108.602904,352.636744 109.525632,354.332135 107.952236,355.100505 C106.380909,355.868874 105.147847,353.936025 104.265462,352.319441 C103.379974,350.703895 89.120104,321.195798 84.8323157,311.78249 C80.2890185,301.809236 69.5379969,278.148424 68.7290583,276.886472 C67.8301227,275.484534 66.2308655,276.351413 66.6280937,277.766831 C67.0553209,279.295275 76.455353,304.563339 80.3945323,313.660382 C84.3337116,322.756387 96.9436369,353.070183 97.5136179,354.644253 C98.0846334,356.218322 99.1987343,358.307749 97.352244,359.112411 C95.5078226,359.918111 94.2354511,357.905417 93.4296158,356.250467 C92.6258495,354.595517 78.3349456,324.225726 74.8157524,316.19258 C71.2965591,308.159434 59.8555604,282.24847 59.2038579,280.908748 C58.5521555,279.569026 56.2763691,280.291771 56.9249682,282.023455 C57.5725329,283.755138 66.9880817,308.704863 70.8848486,318.11506 C74.78265,327.523183 86.5826023,356.575028 87.5373981,358.937169 C88.4921939,361.298273 89.6062948,363.3877 87.7980791,364.272206 C85.9898634,365.155676 84.2964714,362.277141 83.4927051,360.62219 C82.6868698,358.96724 70.8238162,332.385378 65.6588156,320.571562 C60.4948495,308.758784 50.5900066,285.803087 49.8979606,284.58054" id="Fill-6" fill="#D1A396"></path>
                <path d="M16.7521668,297.018694 C15.5501378,296.007681 11.8178482,295.571131 8.20762349,299.884786 C4.59843322,304.197404 4.58601984,309.128037 5.80666889,312.672285 C7.37696147,317.234805 17.5528298,335.088774 33.048866,350.067319 C40.7503339,357.514596 49.8296871,366.344109 61.3441316,376.030131 C72.8596105,385.715116 93.6023687,400.351472 105.6299,408.52253 C112.780007,413.381614 118.418784,416.687367 120.570437,418.496821 C123.166902,420.681646 136.705762,432.067206 144.70722,439.122521 C152.710747,446.178873 177.199243,468.830747 185.306214,476.405566 C193.413186,483.98246 213.274594,502.63176 220.981234,509.65493 C228.688909,516.677062 244.527348,529.569291 250.987478,533.703557 C257.445539,537.838859 260.781634,539.132955 261.703328,538.935937 C262.623987,538.735809 266.428688,535.993112 269.084117,532.822161 C271.738511,529.651209 274.182913,526.086222 273.818787,524.591997 C273.452592,523.094661 270.442348,518.83389 265.755262,513.485372 C260.649225,507.661938 247.478629,495.519414 239.315797,488.653858 C231.153999,481.787266 209.151283,464.794991 200.2602,457.64013 C191.303946,450.434459 166.516495,431.101819 157.967814,423.797639 C149.795672,416.81491 138.946377,407.364273 134.571695,402.930333 C131.886267,400.205264 126.961259,395.130498 121.4642,389.092418 C110.116302,376.630517 102.675515,369.290045 95.368172,362.820599 C88.0618634,356.351153 62.277204,334.987155 51.9099627,326.376435 C41.5447903,317.765716 16.7521668,297.018694 16.7521668,297.018694" id="Fill-8" fill="#D1A396"></path>
                <g id="Group-12" transform="translate(44.196447, 450.156670)">
                    <mask id="mask-2" fill="white">
                        <use xlink:href="#path-1"></use>
                    </mask>
                    <g id="Clip-11"></g>
                    <path d="M1.11114951,12.6381744 C-0.289493552,12.5510718 -0.0267436725,10.0085039 0.849434075,9.2193954 C1.82284997,8.33903646 2.85936721,8.34214727 5.13411911,8.07980238 C6.30097685,7.9460376 24.2993436,5.67307319 43.4397413,3.87191481 C61.588103,2.16408069 80.82367,0.927015666 85.5066176,0.628378006 C95.1259528,0.0145117062 107.982077,-0.424112356 111.743331,1.06596513 C115.503551,2.55707956 119.438592,5.53723453 122.412631,8.16690504 C125.38667,10.7986494 130.020999,15.1807423 134.130862,16.4966145 C138.240725,17.8104128 144.362591,18.0737946 146.462521,18.0737946 C148.561416,18.0737946 191.935835,16.4323244 201.821024,15.8817112 C212.841002,15.2678449 229.45838,12.5510718 242.226576,10.9738916 C254.995807,9.39463764 266.976787,8.6055291 277.821944,8.34214727 C288.666066,8.07980238 299.160544,8.07980238 310.355344,8.69366868 C321.550144,9.30649805 335.717949,11.0609943 337.903738,13.0767985 C339.90643,14.9235821 341.489136,17.5480679 341.489136,21.6678159 C341.489136,25.7886008 340.003668,28.065713 338.253381,29.8212462 C335.63002,32.4509167 321.374288,34.204376 310.179488,34.9063819 C299.343641,35.5845382 289.365353,35.6156463 278.171587,35.4310716 C267.502287,35.2558294 254.120663,34.8192792 242.489326,33.6776123 C231.809681,32.6313436 213.096511,29.6408192 201.733096,29.2073799 C192.551332,28.8579323 149.873097,27.5410232 146.375627,27.5410232 C142.877123,27.5410232 137.104901,27.804405 134.043968,29.1202772 C130.983036,30.4340755 127.835209,32.0133295 124.511527,35.2558294 C121.187844,38.5004031 116.574205,42.5444548 110.868188,43.8489207 C103.959107,45.4250639 96.1748834,44.7375751 86.2938328,44.5488527 C81.954322,44.4658978 64.5673143,44.4845626 47.2009955,44.1112656 C27.8009512,43.6923433 8.42780264,42.9706356 7.32094291,42.9706356 C5.22204722,42.9706356 3.20901075,42.7072538 2.42283001,42.1815271 C1.63561482,41.6558003 1.64078706,39.7737609 2.68454544,39.6389592 C3.71278709,39.5083052 38.0171631,37.9746764 47.2878891,37.6241919 C56.5586152,37.2726705 84.1928682,36.0449379 86.0310829,35.8696957 C87.8672288,35.6944535 89.7913027,35.782593 89.7913027,34.0291337 C89.7913027,32.2756744 87.5165508,32.0133295 85.6814394,31.9262269 C83.8442591,31.8380873 51.1350025,31.9262269 40.8163803,32.1885718 C29.8812268,32.4664707 3.95381355,33.1518856 2.46731128,32.9766434 C0.816331728,32.7816993 0.892880905,30.9608392 2.33593634,30.6974573 C3.8927811,30.4143737 30.6715454,27.804405 40.5536304,27.365781 C50.4367499,26.9281938 83.1449721,24.9994923 84.8062961,24.82425 C86.4676201,24.6490078 88.8292657,24.7361105 88.7423721,22.7213432 C88.6544439,20.7034651 86.2938328,20.4411202 84.4556181,20.4411202 C82.6205068,20.4411202 49.1240349,20.8787074 40.3788086,21.2291918 C31.6335823,21.5796763 3.38486697,22.6332036 1.8983647,22.6332036 C0.411862425,22.6332036 0.0611844367,20.2648411 1.8983647,20.0906358 C3.73451051,19.9153935 30.2329393,17.4599283 40.3788086,16.847099 C50.5236435,16.2321957 81.744329,14.1282519 84.2807963,13.9540466 C86.8172637,13.7788044 89.1789093,13.866944 89.1789093,11.8490659 C89.1789093,9.8332617 85.8562612,9.56987987 84.0180465,9.56987987 C82.1829351,9.56987987 53.148039,10.5352676 40.2908805,11.0609943 C27.435791,11.586721 2.51075811,12.7252771 1.11114951,12.6381744" id="Fill-10" fill="#D1A396" mask="url(#mask-2)"></path>
                </g>
                <path d="M41.9295016,427.478245 C40.4957562,426.839492 38.4682375,423.667504 40.7533338,418.5243 C43.0373958,413.381096 47.4534558,411.210788 51.1650564,410.755573 C55.9462767,410.170741 76.4159405,411.512536 96.6394056,418.905892 C106.692175,422.581832 118.589365,426.890302 132.321667,433.019632 C146.055003,439.147926 168.269781,451.419031 180.870396,458.673437 C188.361871,462.986055 193.797897,466.617406 196.362295,467.763221 C199.459433,469.145457 215.604068,476.35009 225.437534,480.467765 C235.272035,484.583365 266.318933,496.717594 276.664451,500.701503 C287.011003,504.684375 312.439812,514.401506 322.115008,518.267204 C331.790203,522.131866 350.293381,530.752954 356.832129,534.757602 C363.370877,538.763287 365.994238,541.204235 366.219747,542.120887 C366.445257,543.036502 365.654939,547.66746 363.974994,551.450203 C362.29505,555.230873 360.171328,558.995989 358.669309,559.322624 C357.168324,559.650296 352.028151,558.805192 345.176999,556.927301 C337.717592,554.880389 321.055733,548.33732 311.321574,543.99152 C301.587415,539.648831 276.705829,527.274033 266.393413,522.399395 C256.006517,517.491576 227.806421,503.632922 217.508488,499.132618 C207.665712,494.830369 194.436152,489.197731 188.541865,487.202666 C184.921296,485.974933 178.212899,483.763148 170.3904,481.458039 C154.240593,476.696427 144.397817,473.210247 135.393978,469.462759 C126.388071,465.715272 95.9297741,451.851433 83.66432,446.286196 C71.398866,440.720959 41.9295016,427.478245 41.9295016,427.478245" id="Fill-13" fill="#D1A396"></path>
                <path d="M12.4992393,521.687539 C11.2796247,522.381249 12.6275109,524.55052 13.7602319,524.876118 C15.0212244,525.238008 15.9511935,524.778646 18.1100872,524.016498 C19.2169469,523.625573 36.3877549,517.758587 54.3778461,510.966654 C71.4369337,504.527279 89.2666854,497.18577 93.6051617,495.397055 C102.520038,491.721116 114.267233,486.465923 116.996108,483.472287 C119.722914,480.481763 121.957322,476.073747 123.478995,472.402992 C125.002738,468.732238 127.251629,462.756374 130.369456,459.767923 C133.490387,456.779473 138.877793,453.853239 140.763593,452.930365 C142.649392,452.008529 182.352554,434.424163 191.480526,430.574018 C201.652257,426.284213 217.774134,421.425129 229.941316,417.231759 C242.108497,413.039425 253.220541,408.484164 263.082972,403.954826 C272.945402,399.425488 282.379571,394.814232 292.170625,389.343356 C301.964782,383.87248 313.932314,376.069535 315.014347,373.297804 C316.007418,370.758347 316.281547,367.704569 314.480572,364.000633 C312.679598,360.296696 310.348985,358.903054 308.00596,358.094243 C304.498146,356.883102 290.918942,361.572128 280.550666,365.860896 C270.515483,370.012789 261.531299,374.369996 251.551976,379.454095 C242.039189,384.299698 230.203031,390.573163 220.2475,396.708715 C211.10608,402.34239 195.594527,413.254071 185.573826,418.636807 C177.473061,422.985718 139.688801,442.922893 136.544078,444.458595 C133.399355,445.997409 128.097807,448.296297 124.771021,448.460133 C121.44527,448.622932 117.925042,448.588713 113.519327,447.132854 C109.113611,445.678033 103.19967,444.069744 97.5008942,445.407392 C90.6000893,447.025013 83.9051396,451.062843 75.1050876,455.57559 C71.2434919,457.555101 55.6067707,465.179694 40.1603881,473.146476 C22.9078586,482.0465 5.81049635,491.208869 4.81535704,491.696229 C2.92852326,492.619103 1.23616577,493.738994 0.758250636,494.557137 C0.28136995,495.376316 1.10892862,497.066523 2.10613683,496.727444 C3.08679386,496.392514 34.5909182,482.697696 43.0775324,478.938802 C51.5631121,475.180945 76.93813,464.140684 78.6656588,463.491562 C80.3931875,462.841403 82.0845105,461.916455 82.8510368,463.493635 C83.6165285,465.068742 81.6893513,466.30477 80.0756118,467.189276 C78.4649758,468.076894 49.0276793,482.371061 39.6359227,486.669162 C29.6865986,491.223386 6.08359071,502.000266 4.82363263,502.81115 C3.42609291,503.712247 4.28985728,505.315351 5.70291372,504.918204 C7.22665613,504.488913 32.4351278,495.066272 41.5103431,491.117619 C50.5834896,487.168965 80.8255869,474.528712 82.394845,473.95736 C83.9661721,473.384971 86.0505855,472.268191 86.8522829,474.119122 C87.6560493,475.969016 85.6492195,477.243411 83.9972055,478.051184 C82.3472604,478.857921 52.0493029,493.182159 44.0354315,496.709817 C36.0215602,500.237474 10.1737995,511.70599 8.83625775,512.359259 C7.50078494,513.012529 8.22076099,515.293789 9.94828972,514.64363 C11.6758185,513.994508 36.5667145,504.556314 45.9543332,500.650175 C55.3388486,496.742998 84.3220223,484.914666 86.6774612,483.958611 C89.0329001,483.000481 91.1173135,481.884738 92.0007324,483.697303 C92.8810479,485.50883 90.0104537,487.206295 88.3584397,488.011995 C86.7074602,488.819768 60.1904113,500.711354 48.4039069,505.888777 C36.6194714,511.065163 13.7198884,520.993828 12.4992393,521.687539" id="Fill-15" fill="#D1A396"></path>
                <path d="M24.9085851,554.914089 C23.899998,556.119009 23.4644952,559.859238 27.7667659,563.478146 C32.0690366,567.097054 36.9878384,567.10846 40.5235829,565.885912 C45.07619,564.311843 62.8873216,554.110463 77.8299279,538.578194 C85.2583015,530.857166 94.0666291,521.755976 103.730446,510.213838 C113.392193,498.670663 127.993431,477.879053 136.144884,465.822594 C140.991275,458.654254 144.289096,453.001914 146.094209,450.845086 C148.273791,448.242376 159.633069,434.671991 166.671455,426.650251 C173.709842,418.627475 196.3084,394.079044 203.865045,385.953611 C211.422725,377.827142 230.028313,357.917964 237.033597,350.192789 C244.039916,342.467613 256.900177,326.590044 261.025557,320.114377 C265.150937,313.640784 266.441929,310.296664 266.244349,309.373791 C266.045735,308.44988 263.309619,304.636029 260.146276,301.974213 C256.981899,299.313434 253.4265,296.863154 251.934825,297.228155 C250.442116,297.595231 246.191568,300.612716 240.855884,305.312111 C235.045387,310.429392 222.931997,323.632702 216.082915,331.814129 C209.233832,339.995557 192.281293,362.051192 185.144634,370.96366 C177.956252,379.941455 158.668963,404.788523 151.382309,413.357764 C144.417368,421.549561 134.989406,432.425986 130.56507,436.810153 C127.84654,439.50204 122.784984,444.439931 116.761391,449.949173 C104.329391,461.325402 97.0065313,468.783048 90.5526081,476.109003 C84.0976504,483.431847 62.7859457,509.278522 54.1948522,519.670697 C45.6047931,530.060799 24.9085851,554.914089 24.9085851,554.914089" id="Fill-17" fill="#D1A396"></path>
                <path d="M107.653384,322.124893 C106.451355,321.11388 102.719065,320.67733 99.1088407,324.989948 C95.4996504,329.302566 95.487237,334.233198 96.7078861,337.777446 C98.2781787,342.341003 108.454047,360.194973 123.950083,375.173518 C131.651551,382.619758 140.730904,391.450307 152.245349,401.136329 C163.760828,410.821315 184.502551,425.457671 196.531117,433.628729 C203.682258,438.486776 209.320002,441.793565 211.471654,443.603019 C214.06812,445.786807 227.60698,457.173405 235.608437,464.22872 C243.611964,471.284034 268.101494,493.936945 276.207432,501.511765 C284.314403,509.087622 304.175811,527.737958 311.882452,534.760091 C319.590126,541.783261 335.428565,554.674453 341.888695,558.809755 C348.346756,562.945057 351.682852,564.239154 352.604545,564.041099 C353.525204,563.842007 357.329905,561.09931 359.986369,557.928359 C362.639729,554.756371 365.08413,551.192421 364.720004,549.697159 C364.353809,548.20086 361.343565,543.940088 356.656479,538.591571 C351.550442,532.767099 338.379846,520.624575 330.217014,513.75902 C322.055217,506.893464 300.0525,489.900152 291.161417,482.746328 C282.205163,475.540658 257.417712,456.20698 248.869031,448.902801 C240.696889,441.921109 229.847595,432.470471 225.472913,428.035494 C222.787485,425.310426 217.861442,420.236696 212.365418,414.198616 C201.017519,401.736715 193.576732,394.396243 186.268355,387.926798 C178.963081,381.456315 153.178421,360.093353 142.81118,351.481597 C132.446007,342.870878 107.653384,322.124893 107.653384,322.124893" id="Fill-19" fill="#D1A396"></path>
                <path d="M202.526573,16.9643854 C203.164827,15.5271916 206.32817,13.4947965 211.459034,15.7853888 C216.589898,18.0749442 218.756033,22.5016253 219.209121,26.2221528 C219.793584,31.0148725 218.455008,51.5327314 211.079391,71.8058734 C207.412272,81.8828205 203.114139,93.8086251 196.999515,107.573955 C190.885925,121.340321 178.644264,143.608529 171.406229,156.23945 C167.103958,163.747906 163.48132,169.197006 162.339289,171.768608 C160.960369,174.873196 153.773022,191.055624 149.665228,200.913777 C145.558468,210.771931 133.454388,241.893501 129.479003,252.262864 C125.505687,262.634301 115.811871,288.124269 111.956482,297.823772 C108.100059,307.522237 99.5006897,326.069917 95.5046158,332.624391 C91.5085418,339.178866 89.0744849,341.808536 88.1600325,342.034589 C87.2466147,342.259604 82.6257339,341.468421 78.8531008,339.784437 C75.0804677,338.100452 71.3243857,335.970585 70.999569,334.46599 C70.6726833,332.961396 71.5157587,327.808859 73.3891446,320.94123 C75.4301112,313.463882 81.9585147,296.761949 86.2928533,287.003341 C90.6261574,277.246807 102.970229,252.305378 107.833171,241.96816 C112.73025,231.556282 126.555652,203.287325 131.045158,192.96566 C135.336049,183.099211 140.955173,169.837833 142.946486,163.92937 C144.170238,160.300093 146.376716,153.575561 148.67733,145.733211 C153.427516,129.545598 156.905332,119.678112 160.642794,110.652619 C164.38129,101.626088 178.212899,71.094535 183.764783,58.7995811 C189.315633,46.5046272 202.526573,16.9643854 202.526573,16.9643854" id="Fill-21" fill="#D1A396"></path>
                <path d="M83.5549788,257.796371 C82.5453573,259.001291 82.110889,262.742557 86.4131596,266.361465 C90.7154303,269.979336 95.6342322,269.991779 99.1699766,268.768194 C103.721549,267.194125 121.533715,256.993782 136.475287,241.460476 C143.904695,233.740485 152.713023,224.639295 162.375805,213.097157 C172.037552,201.553982 186.638791,180.761335 194.790244,168.704876 C199.637669,161.536535 202.93549,155.885233 204.740602,153.728405 C206.920185,151.124658 218.278428,137.554272 225.317849,129.53357 C232.356235,121.510794 254.953759,96.9623632 262.510405,88.8369302 C270.069119,80.7104603 288.674706,60.801283 295.681025,53.0761074 C302.686309,45.3498949 315.546571,29.473363 319.671951,22.9976957 C323.796297,16.5241022 325.087288,13.1789457 324.890743,12.2571093 C324.691094,11.333199 321.956013,7.5183103 318.791636,4.85753171 C315.628293,2.19571619 312.071859,-0.253527397 310.581219,0.111474187 C309.087476,0.477512707 304.837962,3.49499739 299.502277,8.19542972 C293.691781,13.3127104 281.578391,26.5160206 274.729308,34.6974481 C267.880226,42.8788757 250.927686,64.9345111 243.789993,73.8469788 C236.601611,82.8247734 217.315356,107.671841 210.028702,116.241083 C203.062727,124.43288 193.634765,135.308268 189.211464,139.693472 C186.492934,142.385359 181.430343,147.322212 175.407785,152.832492 C162.97475,164.207683 155.651891,171.666366 149.197967,178.991284 C142.744044,186.315166 121.431305,212.16184 112.841246,222.554016 C104.251187,232.944118 83.5549788,257.796371 83.5549788,257.796371" id="Fill-23" fill="#D1A396"></path>
                <g id="Group-59" transform="translate(62.816517, 157.537587)" fill="#6D748F">
                    <path d="M142.370967,285.146396 C220.914561,285.146396 284.586926,221.320891 284.586926,142.589428 C284.586926,63.85589 220.914561,0.0293488307 142.370967,0.0293488307 C63.8273734,0.0293488307 0.155008901,63.85589 0.155008901,142.589428 C0.155008901,221.320891 63.8273734,285.146396 142.370967,285.146396" id="Fill-25"></path>
                </g>
                <path d="M140.179976,251.714 C136.993976,251.876 133.321976,251.984 129.487976,251.984 C125.653976,251.984 121.981976,251.876 118.849976,251.714 C119.119976,254.306 119.227976,261.596 119.227976,265.052 L119.227976,276.986 C119.227976,280.496 119.119976,287.408 118.849976,290 L124.681976,290 C124.519976,288.488 124.519976,284.33 124.519976,282.224 L124.519976,272.72 L137.155976,272.828 C137.155976,271.262 137.209976,269.534 137.317976,268.238 L124.519976,268.292 L124.519976,259.652 C124.519976,258.842 124.519976,257.384 124.573976,256.358 C126.139976,256.304 127.867976,256.304 129.487976,256.304 C133.321976,256.304 136.615976,256.358 139.801976,256.412 C139.855976,254.684 139.963976,253.28 140.179976,251.714 Z M165.514,276.662 C165.514,269.912 162.49,264.404 155.146,264.404 C147.478,264.404 142.564,270.56 142.564,278.336 C142.564,285.086 146.506,290.972 154.822,290.972 C158.386,290.972 161.356,289.838 164.11,288.002 L164.326,282.926 C161.896,284.924 159.088,286.598 155.308,286.598 C150.502,286.598 147.91,284.06 147.532,279.038 L162.274,278.606 L165.514,276.662 Z M147.64,275.312 C148.342,271.478 150.88,268.562 154.876,268.562 C158.602,268.562 160.33,270.776 160.87,274.934 L147.64,275.312 Z M193.514,276.662 C193.514,269.912 190.49,264.404 183.146,264.404 C175.478,264.404 170.564,270.56 170.564,278.336 C170.564,285.086 174.506,290.972 182.822,290.972 C186.386,290.972 189.356,289.838 192.11,288.002 L192.326,282.926 C189.896,284.924 187.088,286.598 183.308,286.598 C178.502,286.598 175.91,284.06 175.532,279.038 L190.274,278.606 L193.514,276.662 Z M175.64,275.312 C176.342,271.478 178.88,268.562 182.876,268.562 C186.602,268.562 188.33,270.776 188.87,274.934 L175.64,275.312 Z M210.416,264.404 C203.018,264.404 197.51,270.668 197.51,278.606 C197.51,285.518 201.938,290.972 208.958,290.972 C211.874,290.972 214.898,289.46 216.572,287.3 L216.95,290 L221.54,290 C221.27,287.516 221.162,284.168 221.162,281.036 L221.162,256.844 C221.162,255.008 221.216,252.362 221.378,250.958 C219.758,251.282 217.76,251.498 215.816,251.66 C216.086,253.982 216.14,257.438 216.14,260.57 L216.194,266.186 C214.79,265.106 212.576,264.404 210.416,264.404 Z M210.524,268.724 C212.954,268.724 214.898,269.642 216.194,270.992 L216.194,282.872 C215.006,285.194 212.522,286.652 209.876,286.652 C205.934,286.652 202.478,283.79 202.478,278.012 C202.478,272.936 205.448,268.724 210.524,268.724 Z M234.23,290 C234.068,288.596 234.014,286.652 234.014,284.762 L234.014,270.668 C234.014,268.778 234.068,266.294 234.23,264.89 C232.61,265.052 230.612,265.16 228.668,265.16 C228.938,267.482 229.046,271.208 229.046,274.34 L229.046,281.144 C229.046,284.33 228.938,287.678 228.668,290 L234.23,290 Z M235.04,255.872 C235.04,254.252 233.744,252.686 231.854,252.686 C229.856,252.686 228.506,254.306 228.506,256.196 C228.506,257.816 229.748,259.382 231.692,259.382 C233.69,259.382 235.04,257.762 235.04,255.872 Z M263.768,290 C263.66,288.596 263.552,286.328 263.552,284.438 L263.552,273.368 C263.552,267.752 260.96,264.404 255.56,264.404 C252.536,264.404 248.864,266.348 246.812,269.696 L246.434,264.89 C244.814,265.052 243.464,265.16 241.574,265.16 C241.79,267.482 241.898,271.208 241.898,274.34 L241.898,280.82 C241.898,283.952 241.79,287.678 241.574,290 L247.082,290 C246.92,288.596 246.866,286.328 246.866,284.438 L246.866,275.528 C246.866,272.288 250.7,268.778 254.264,268.778 C257.558,268.778 258.584,271.208 258.584,274.34 L258.584,280.82 C258.584,283.952 258.476,287.678 258.206,290 L263.768,290 Z M290.606,273.152 C290.606,271.262 289.634,268.67 287.582,266.78 C288.284,265.268 289.526,264.674 292.01,264.944 L292.28,260.57 C288.392,260.084 285.854,261.488 284.828,265.106 C283.694,264.674 282.398,264.404 280.886,264.404 C274.892,264.404 270.41,268.724 270.41,274.07 C270.41,276.878 271.76,279.47 274.082,281.09 C271.922,282.386 270.68,283.736 270.68,285.626 C270.68,287.3 271.868,288.434 273.65,289.244 C270.302,290.81 268.304,292.862 268.304,295.67 C268.304,299.234 272.03,302.096 278.996,302.096 C286.88,302.096 292.604,297.83 292.604,292.808 C292.604,288.164 288.392,286.382 281.642,286.382 L280.562,286.382 C276.188,286.382 275.054,285.842 275.054,284.546 C275.054,283.898 275.702,283.142 276.836,282.44 C277.808,282.71 278.834,282.872 279.968,282.872 C286.016,282.872 290.606,278.876 290.606,273.152 Z M280.724,290.486 L281.48,290.486 C285.8,290.486 287.96,291.458 287.96,293.51 C287.96,296.102 284.558,298.262 279.266,298.262 C275,298.262 272.948,296.642 272.948,294.914 C272.948,293.402 274.298,291.674 277.484,290.324 C278.402,290.432 279.428,290.486 280.724,290.486 Z M285.962,273.692 C285.962,276.608 283.802,279.038 280.4,279.038 C277.268,279.038 275.108,277.148 275.108,273.584 C275.108,270.83 277.322,268.238 280.67,268.238 C283.964,268.238 285.962,270.398 285.962,273.692 Z" id="Feeding" fill="#FFFFFF"></path>
                <path d="M110.024,342 L115.424,342 C115.478,340.488 115.964,336.33 116.234,334.224 L118.448,317.7 C120.608,322.452 129.032,340.704 129.95,342.918 L131.3,342.54 C132.218,340.272 141.074,321.642 142.964,317.646 L145.124,334.224 C145.502,336.384 145.934,340.866 146.042,342.432 L151.604,342 C151.01,339.192 149.876,332.496 149.39,328.986 L147.716,316.944 C147.284,313.542 146.312,306.198 145.988,303.12 L144.692,303.12 C143.936,304.956 142.046,309.06 141.074,311.166 L130.76,333.414 L120.446,311.166 C119.42,309.006 117.8,305.55 116.774,303.12 L115.37,303.498 C115.154,306.36 114.344,313.488 113.858,316.998 L112.184,328.986 C111.698,332.55 110.672,339.138 110.024,342 Z M179.684,328.662 C179.684,321.912 176.66,316.404 169.316,316.404 C161.648,316.404 156.734,322.56 156.734,330.336 C156.734,337.086 160.676,342.972 168.992,342.972 C172.556,342.972 175.526,341.838 178.28,340.002 L178.496,334.926 C176.066,336.924 173.258,338.598 169.478,338.598 C164.672,338.598 162.08,336.06 161.702,331.038 L176.444,330.606 L179.684,328.662 Z M161.81,327.312 C162.512,323.478 165.05,320.562 169.046,320.562 C172.772,320.562 174.5,322.776 175.04,326.934 L161.81,327.312 Z M222.074,342 C221.912,340.596 221.858,338.328 221.858,336.438 L221.858,325.368 C221.858,319.752 219.374,316.404 213.974,316.404 C210.302,316.404 207.278,318.456 205.604,321.21 C204.74,318.456 202.418,316.404 198.422,316.404 C195.56,316.404 192.59,318.024 190.376,320.994 L189.998,316.89 C188.378,317.052 187.082,317.16 185.138,317.16 C185.408,319.482 185.516,323.208 185.516,326.34 L185.516,332.82 C185.516,335.952 185.408,339.678 185.138,342 L190.7,342 C190.538,340.596 190.484,338.328 190.484,336.438 L190.484,326.826 C190.484,323.532 193.616,320.778 197.126,320.778 C200.42,320.778 201.122,323.208 201.122,326.34 L201.122,332.82 C201.122,335.952 201.014,339.678 200.798,342 L206.306,342 C206.144,340.596 206.09,338.328 206.09,336.438 L206.09,326.826 C206.09,323.532 209.168,320.778 212.732,320.778 C216.026,320.778 216.89,323.208 216.89,326.34 L216.89,332.82 C216.89,335.952 216.782,339.678 216.512,342 L222.074,342 Z M252.584,329.04 C252.584,322.29 247.94,316.404 240.542,316.404 C232.874,316.404 227.852,322.56 227.852,330.336 C227.852,337.086 232.496,342.972 239.84,342.972 C247.562,342.972 252.584,336.816 252.584,329.04 Z M247.67,329.742 C247.67,334.656 244.862,338.598 240.11,338.598 C235.682,338.598 232.766,335.52 232.766,329.526 C232.766,324.666 235.736,320.778 240.326,320.778 C244.43,320.778 247.67,323.964 247.67,329.742 Z M272.348,316.404 C268.298,316.89 265.652,318.348 263.6,321.696 L263.06,316.782 C261.494,317.16 259.874,317.43 258.146,317.484 C258.524,319.698 258.686,322.128 258.686,325.26 L258.686,332.82 C258.686,335.952 258.632,339.678 258.362,342 L263.87,342 C263.708,340.596 263.654,338.328 263.654,336.438 L263.654,327.15 C263.654,323.37 268.136,321.48 271.7,322.128 L272.348,316.404 Z M277.262,353.448 C278.882,353.286 280.88,353.232 282.77,353.232 C283.634,350.586 285.092,347.346 285.848,345.402 L297.944,316.836 C296.378,316.998 294.38,317.052 292.436,317.052 C291.41,320.022 290.276,323.154 288.926,326.502 L286.01,333.63 L279.314,316.728 L273.752,317.43 C274.994,319.752 276.614,323.37 278.018,326.556 L281.15,333.468 C281.96,335.412 282.716,337.41 283.472,339.3 L277.262,353.448 Z" id="Memory" fill="#FFFFFF"></path>
                <rect id="Rectangle-2" fill="#FFFFFF" x="125" y="217" width="158" height="1.5" rx="0.75"></rect>
                <rect id="Rectangle-2-Copy" fill="#FFFFFF" x="125" y="381" width="158" height="1.5" rx="0.75"></rect>
            </g>
        </g>
    </g>
</svg>