<?xml version="1.0" encoding="UTF-8" standalone="no"?>
<svg width="106px" height="92px" viewBox="0 0 106 92" version="1.1" xmlns="http://www.w3.org/2000/svg" xmlns:xlink="http://www.w3.org/1999/xlink">
    <defs></defs>
    <g id="VIsuals" stroke="none" stroke-width="1" fill="none" fill-rule="evenodd">
        <g id="1" transform="translate(-390.000000, -38.000000)">
            <g id="Group-91" transform="translate(390.000000, 38.000000)">
                <path d="M105.317801,54.8689233 L100.118437,7.39032975 C99.6083757,3.0547124 95.5913028,0.192424734 91.1629193,0.203311407 C90.7760699,0.203311407 90.3883145,0.225991975 90.0005592,0.269538665 L8.80839412,9.1857235 C4.18613293,9.69013933 0.469842174,13.1539157 0.429073504,17.5358014 C0.429073504,17.8052465 0.445380972,18.0710628 0.474372026,18.3341573 L5.67283042,65.809122 C6.18107984,70.1429249 10.2008707,73.0061198 14.6283482,72.9925114 C15.0088558,72.9925114 15.3966112,72.9734597 15.7861785,72.9317275 L62.6837384,67.7796097 L63.2554058,89.6899455 C63.2744311,90.4111875 63.738288,91.0480579 64.4177658,91.2893791 C64.6053017,91.3556064 64.7991794,91.3882664 64.9930571,91.3882664 C65.4958707,91.3882664 65.9869066,91.1687185 66.3248336,90.7722622 L88.1550974,64.9844565 L96.9828734,64.0164499 C101.603323,63.5038691 105.317801,60.0446289 105.360382,55.6636504 C105.360382,55.4041847 105.346793,55.1383684 105.317801,54.8689233" id="Fill-87" fill="#CB2B83"></path>
                <path d="M24.1670034,26.9593103 L20.4850889,27.4147424 C19.4114991,27.5471987 18.8534137,28.2149238 18.9748154,29.2065319 C19.0925932,30.1545927 19.8019778,30.7089134 20.8746615,30.5755498 L22.8315846,30.3342253 C22.8796017,32.1042411 21.7806444,33.4161032 19.9922342,33.6374686 C17.3404222,33.9649805 15.9134991,31.7458832 15.6272085,29.4278973 C15.3046786,26.8150599 16.5232256,24.5678384 18.9014308,24.2729869 C21.1944735,23.9890223 21.9763368,25.476888 23.2175333,25.3235653 C24.1651915,25.2065319 24.6806957,24.5424358 24.5765077,23.6996143 C24.3164906,21.5939214 21.1836017,20.7828531 18.3641829,21.1312314 C14.1341487,21.6547061 11.4044222,25.3299159 11.9661316,29.8806077 C12.4961316,34.1781808 15.5846274,37.3916078 20.2975504,36.8082556 C24.4641658,36.292946 26.730935,32.8472667 26.2344564,28.820957 C26.0605077,27.4102062 25.3456872,26.8132455 24.1670034,26.9593103 L24.1670034,26.9593103 Z M39.1003197,31.7858016 C38.9970376,30.9447945 38.2949009,30.4530731 37.5583368,30.5437966 C36.801841,30.638149 35.9393453,31.7930595 34.3194479,31.9935584 C32.2148496,32.2530277 31.5489521,31.1815829 31.4628838,30.4857335 L37.3961658,29.750873 C38.4489179,29.6211384 38.9617043,29.280018 38.818559,28.1205714 C38.4652256,25.2555226 36.0471573,22.7951008 32.8064564,23.1960987 C29.4407299,23.6125197 27.4049863,26.688047 27.795465,29.8479472 C28.2040632,33.1557267 30.7380974,35.5172599 34.2732427,35.0799726 C36.7556359,34.7724198 39.2978239,33.3879789 39.1003197,31.7858016 L39.1003197,31.7858016 Z M33.0655675,25.9876614 C34.3493453,25.8288953 35.3441145,26.9674754 35.4347128,27.7041504 L31.184747,28.2294396 C31.0941487,27.4927646 31.7826957,26.1464276 33.0655675,25.9876614 L33.0655675,25.9876614 Z M50.157841,32.9007936 C51.1245248,32.7810386 51.7052598,31.9391243 51.5874821,30.9910635 L50.5954308,22.9420729 C50.478559,21.9940121 49.7111915,21.3181219 48.7436017,21.4378769 C47.9436188,21.5367656 47.5060291,22.1473349 47.3375162,22.6826036 C46.4886103,21.8669992 45.603465,21.6129733 44.3613624,21.7662961 C41.4993624,22.121025 39.6158239,25.0268994 40.0235162,28.3346789 C40.4321145,31.6433656 42.9661487,34.0048989 45.8272427,33.6501699 C47.0693453,33.4968471 47.8666103,33.0341572 48.4908325,32.0371057 C48.7852769,32.5143114 49.3569521,32.9996823 50.157841,32.9007936 L50.157841,32.9007936 Z M45.9006274,30.4322067 C44.4483368,30.6118392 43.4934308,29.4469492 43.3058923,27.9291448 C43.1183538,26.4122475 43.7625077,25.048673 45.2147983,24.8690404 C46.6661829,24.6894079 47.6219949,25.8561123 47.8095333,27.3721023 C47.9961658,28.8899068 47.3529179,30.2525741 45.9006274,30.4322067 L45.9006274,30.4322067 Z M53.5679607,30.74611 C53.6857385,31.6941708 54.453106,32.3682466 55.4206957,32.2493988 C56.3882855,32.1296437 56.9681145,31.2877294 56.8512427,30.3405759 L56.3574821,26.3360398 C56.149106,24.6503968 56.5658581,24.2140166 57.9447641,23.6161486 C59.0998923,23.1080969 59.9279607,22.7288726 59.7875333,21.5911997 C59.6606957,20.5578588 58.7356872,19.9881151 57.8940291,20.0915399 C56.9681145,20.2067588 56.2442342,20.9162167 55.777653,21.6383759 C55.5067641,21.1793149 54.8897897,20.6776138 54.0064564,20.7873893 C53.0388667,20.9071443 52.4590376,21.7490586 52.5759094,22.6971194 L53.5679607,30.74611 Z M67.0417385,31.0264457 C69.5250376,30.718893 72.0672256,29.3344521 71.8688154,27.7322747 C71.7655333,26.8903605 71.0643026,26.3995462 70.3268325,26.4902697 C69.5703368,26.5846222 68.708747,27.7395326 67.0879436,27.9400316 C64.9842513,28.1995008 64.3174479,27.1280561 64.2313795,26.4322067 L70.1655675,25.6973462 C71.2174137,25.5676115 71.731106,25.2264911 71.5888667,24.0670445 C71.2346274,21.2019958 68.815653,18.7415739 65.5758581,19.1416647 C62.2092256,19.5580856 60.175294,22.6345202 60.5648667,25.7944203 C60.972559,29.1021999 63.5065932,31.4637331 67.0417385,31.0264457 L67.0417385,31.0264457 Z M65.8349692,21.9341346 C67.117841,21.7753684 68.1135162,22.9139486 68.2041145,23.6506236 L63.9541487,24.1759128 C63.8626444,23.4392378 64.5511915,22.0929007 65.8349692,21.9341346 L65.8349692,21.9341346 Z M78.5966444,29.596643 C79.837841,29.4433203 80.636012,28.9806303 81.2602342,27.9835789 C81.5537726,28.4607846 82.1263538,28.9452482 82.9263368,28.8463595 C83.8948325,28.7275117 84.4746615,27.8855975 84.3577897,26.9384439 L82.7614479,13.9994556 C82.6445761,13.0513948 81.8772085,12.3764118 80.9087128,12.4952596 C79.9411231,12.6159219 79.3622,13.4578362 79.4790718,14.4049897 L79.9601487,18.3042866 C79.310559,17.8924018 78.5404735,17.5385801 77.1307641,17.7127692 C74.2696701,18.0674982 72.3852256,20.9733725 72.7929179,24.281152 C73.2015162,27.5898388 75.7346444,29.951372 78.5966444,29.596643 L78.5966444,29.596643 Z M77.983294,20.8155136 C79.4355846,20.635881 80.3913966,21.8016782 80.578935,23.3185755 C80.7646615,24.8354727 80.1214137,26.1990472 78.6700291,26.3786798 C77.2177385,26.5583124 76.2628325,25.3934224 76.075294,23.8756179 C75.8877556,22.3596279 76.5310034,20.9951462 77.983294,20.8155136 L77.983294,20.8155136 Z M17.9664564,44.0978904 L17.4527641,44.1613969 L17.3893453,43.6460873 C17.3295504,43.1679743 17.457294,43.0182805 17.7435846,42.9828983 C18.3297556,42.9103195 18.5943026,42.5991379 18.5218239,42.0112495 C18.4348496,41.3072349 17.7463026,41.2337489 17.1728154,41.303606 C16.025841,41.4469492 15.3445419,42.4176908 15.4849692,43.5544565 L15.5873453,44.3927418 L15.3735333,44.4190517 C14.7755846,44.4925377 14.4258752,44.8037194 14.4992598,45.4015874 C14.5735504,46.0003626 14.9884906,46.2153773 15.5855333,46.1418913 L15.8011573,46.1155815 L16.2632085,49.8615556 C16.3293453,50.3995461 16.7642171,50.7823993 17.3141487,50.7143567 C17.8640803,50.6472213 18.1938581,50.1691083 18.1268154,49.6302106 L17.6647641,45.8842365 L18.1784564,45.82073 C18.7764051,45.747244 19.1270205,45.4369696 19.0527299,44.8381943 C18.9793453,44.2403263 18.5634991,44.0244044 17.9664564,44.0978904 L17.9664564,44.0978904 Z M22.2544735,43.3739167 C20.3664051,43.6061689 19.2964393,45.257337 19.5283709,47.1362211 C19.7593966,49.0151052 21.1990034,50.3559988 23.0870718,50.1228393 C24.9760462,49.8896799 26.046012,48.2366974 25.8140803,46.3596277 C25.5830547,44.4807437 24.1434479,43.13985 22.2544735,43.3739167 L22.2544735,43.3739167 Z M22.866012,48.3283281 C22.0415675,48.4299385 21.4988838,47.7676568 21.3919778,46.9057833 C21.2868838,46.0448171 21.6510889,45.2709455 22.4764393,45.1684279 C23.3008838,45.0659104 23.8435675,45.728192 23.9495675,46.5900655 C24.0564735,47.4510317 23.6913624,48.2267178 22.866012,48.3283281 L22.866012,48.3283281 Z M29.4579436,42.4821045 C28.9324735,42.5474255 28.5202513,42.9502379 28.2557043,43.359401 C28.1025932,43.0990245 27.7519778,42.8141526 27.2500632,42.8767518 C26.7001316,42.9447945 26.3712598,43.4229074 26.4373966,43.9608979 L27.0009179,48.532456 C27.0679607,49.0713537 27.5028325,49.454207 28.0536701,49.3861644 C28.6026957,49.3181217 28.9315675,48.840916 28.8654308,48.3020183 L28.5854821,46.0284869 C28.4667983,45.0713538 28.7032598,44.8236786 29.486935,44.4825581 C30.1428667,44.1949646 30.6139778,43.9799498 30.5333453,43.3339984 C30.4617726,42.7470172 29.9363026,42.4240415 29.4579436,42.4821045 L29.4579436,42.4821045 Z M46.0981316,45.6447264 L42.4162171,46.1001585 C41.3426274,46.2326148 40.7845419,46.9003399 40.9068496,47.8910408 C41.0237214,48.8391015 41.7322,49.3934222 42.8057897,49.2609659 L44.7627128,49.0178269 C44.8107299,50.78875 43.7117726,52.1006121 41.9233624,52.3228847 C39.2724564,52.6503966 37.8446274,50.4303921 37.5592427,48.1124061 C37.2367128,45.500476 38.4543538,43.2532544 40.832559,42.9593102 C43.1265077,42.6753456 43.906559,44.1613969 45.1495675,44.0080741 C46.0954137,43.8910408 46.6118239,43.2287591 46.5085419,42.3850304 C46.2485248,40.277523 43.1147299,39.4682692 40.2953111,39.8166475 C36.0652769,40.339215 33.3364564,44.0144248 33.8972598,48.5660237 C34.4281658,52.8645041 37.5157556,56.0761167 42.2286786,55.4936717 C46.395294,54.9774549 48.6620632,51.5308684 48.1655846,47.506373 C47.9916359,46.0956223 47.2768154,45.4986615 46.0981316,45.6447264 L46.0981316,45.6447264 Z M52.8920974,44.0552503 C52.7752256,43.1080968 52.0078581,42.4322066 51.0393624,42.5528689 C50.0717726,42.6726239 49.4928496,43.5136309 49.6097214,44.4616917 L50.6026786,52.5106824 C50.7195504,53.4587431 51.486012,54.1337261 52.4536017,54.0139711 C53.4220974,53.894216 54.0019265,53.0523018 53.8850547,52.1051482 L52.8920974,44.0552503 Z M50.9206786,41.5830344 C51.9933624,41.4496709 52.7706957,40.4771147 52.6357043,39.3811746 C52.4998068,38.2852345 51.5095675,37.5304148 50.4368838,37.6628712 C49.3642,37.7962347 48.5868667,38.7696981 48.7218581,39.864731 C48.8568496,40.9615783 49.8470889,41.716398 50.9206786,41.5830344 L50.9206786,41.5830344 Z M62.1304051,41.180222 C61.4780974,41.2609659 60.9354137,41.5422089 60.704388,42.6181898 L59.5719094,47.8075751 L59.5302342,47.8121113 L57.1692427,43.0554772 C56.6845419,42.067498 56.0911231,41.9277838 55.4379094,42.0085277 C54.5337385,42.1210249 53.8904906,42.9692898 53.9992085,43.8547514 C54.0617214,44.3600814 54.345294,44.9234744 54.7312427,45.6247672 L58.2247128,51.9527327 C58.636935,52.6939439 59.2720291,53.1702424 60.1988496,53.0559307 C61.1238581,52.9416191 61.6248667,52.3246992 61.8441145,51.5045585 L63.6950376,44.5161258 C63.8979778,43.7422542 64.0365932,43.1262415 63.9740803,42.6209115 C63.8644564,41.73545 63.0345761,41.0686321 62.1304051,41.180222 L62.1304051,41.180222 Z M68.3807812,42.1391696 C68.2639094,41.1911088 67.4974479,40.5170331 66.5298581,40.6358809 C65.5613624,40.7556359 64.9815333,41.5975502 65.0984051,42.5447037 L66.0922684,50.5946016 C66.2091402,51.5426624 66.9756017,52.2176454 67.9440974,52.0978904 C68.9116872,51.9781353 69.4915162,51.136221 69.3746444,50.1881603 L68.3807812,42.1391696 Z M66.4102684,39.6660465 C67.4829521,39.5335901 68.2602855,38.561034 68.125294,37.4641867 C67.9903026,36.3691538 66.9991573,35.6143341 65.9264735,35.7467904 C64.8537897,35.8792468 64.0764564,36.8536174 64.2114479,37.9495575 C64.3464393,39.0454976 65.3366786,39.7985028 66.4102684,39.6660465 L66.4102684,39.6660465 Z M80.7864051,42.5946017 C80.4539094,39.8973915 78.4987983,38.9411656 76.2256872,39.2224085 C74.8159778,39.3975049 73.9870034,39.9481966 73.5630034,40.8363799 C73.2921145,40.3773189 72.6751402,39.876525 71.7909009,39.9853933 C70.8233111,40.1051483 70.2434821,40.9461553 70.3603538,41.8942161 L71.3533111,49.9432068 C71.4701829,50.8912675 72.2375504,51.5662505 73.2051402,51.4474027 C74.1727299,51.3267404 74.752559,50.4848262 74.6356872,49.5376726 L73.9942513,44.3337716 C73.8538239,43.1960986 74.4227812,42.2689043 75.5597897,42.1282828 C76.6949863,41.9876613 77.4732256,42.7479244 77.613653,43.8855974 L78.2550889,49.0904057 C78.3719607,50.0375592 79.1393282,50.7134494 80.1069179,50.5927872 C81.0754137,50.4730321 81.6552427,49.6320251 81.5383709,48.6839643 L80.7864051,42.5946017 Z M94.2674308,47.6016327 L93.2146786,39.0672712 C93.0978068,38.1201177 92.3304393,37.4451347 91.3628496,37.5639825 C90.5628667,37.6628712 90.1252769,38.2734405 89.9558581,38.807802 C89.1087641,37.9921975 88.2227128,37.7381717 86.9806103,37.8924017 C84.1195162,38.2462234 82.2350718,41.1520977 82.6427641,44.4616917 C83.0096872,47.4319797 84.928559,49.9967336 88.105841,49.6039008 C89.1993624,49.4687228 90.3472427,49.0704465 90.9370376,47.9708775 L90.9796188,47.9645268 C91.2061145,49.7980491 90.6434991,50.9593102 88.6023197,51.2106143 C86.6879778,51.4474027 85.9586615,50.5546833 85.0110034,50.6717166 C84.3586957,50.7524606 83.7290376,51.5354045 83.8205419,52.273894 C84.0416017,54.063869 87.3203538,54.3224311 89.0245077,54.1110453 C92.2443709,53.712769 94.784747,51.7948738 94.2674308,47.6016327 L94.2674308,47.6016327 Z M88.5253111,46.6000451 C87.0739265,46.7796776 86.1226444,45.6565205 85.9251402,44.0552503 C85.7385077,42.5383531 86.3817556,41.1747786 87.8340462,40.995146 C89.2854308,40.8155135 90.2412427,41.9804035 90.4287812,43.4982079 C90.6262855,45.1003853 89.9766957,46.4204125 88.5253111,46.6000451 L88.5253111,46.6000451 Z" id="Fill-89" fill="#FFFFFF"></path>
            </g>
        </g>
    </g>
</svg>