<?xml version="1.0" encoding="UTF-8" standalone="no"?>
<svg width="117px" height="26px" viewBox="0 0 117 26" version="1.1" xmlns="http://www.w3.org/2000/svg" xmlns:xlink="http://www.w3.org/1999/xlink">
    <!-- Generator: Sketch 40.3 (33839) - http://www.bohemiancoding.com/sketch -->
    <title>Group 27</title>
    <desc>Created with Sketch.</desc>
    <defs>
        <polygon id="path-1" points="0.00534188034 31.8647154 124.974893 31.8647154 124.974893 0.191479675 0.00534188034 0.191479675"></polygon>
    </defs>
    <g id="Page-1" stroke="none" stroke-width="1" fill="none" fill-rule="evenodd">
        <g id="1" transform="translate(-26.000000, -37.000000)">
            <g id="Group-27" transform="translate(22.000000, 34.000000)">
                <path d="M120.809535,11.702374 C120.50024,11.6118374 120.036565,11.5517398 119.572623,11.5517398 C118.335443,11.5517398 116.38726,12.0338211 115.58304,13.7204553 L115.58304,11.702374 L111.037099,11.702374 L111.037099,26.6734309 L115.737687,26.6734309 L115.737687,20.1368455 C115.737687,17.1543415 117.438809,16.0702439 119.325294,16.0702439 C119.788969,16.0702439 120.283894,16.1004228 120.809535,16.220878 L120.809535,11.702374 L120.809535,11.702374 Z" id="Fill-11" fill="#5B4173"></path>
                <path d="M98.2093483,17.3954602 C98.3020299,16.2809236 99.2918803,14.8651187 101.271047,14.8651187 C103.49781,14.8651187 104.301763,16.2507447 104.363462,17.3954602 L98.2093483,17.3954602 Z M108.909669,18.9317203 C108.909669,14.1122081 105.971902,11.2504195 101.209081,11.2504195 C97.219765,11.2504195 93.5394765,14.3229398 93.5394765,19.1427122 C93.5394765,24.1732163 97.3127137,27.1252813 101.549359,27.1252813 C105.445994,27.1252813 107.889103,24.9565659 108.631357,22.3661268 L104.703739,21.2815089 C104.27078,22.4564033 103.312179,23.2394927 101.611325,23.2394927 C99.7865385,23.2394927 98.2093483,22.0344195 98.1166667,20.3475252 L108.816987,20.3475252 C108.84797,20.2572488 108.909669,19.5644358 108.909669,18.9317203 L108.909669,18.9317203 Z" id="Fill-13" fill="#5B4173"></path>
                <polygon id="Fill-15" fill="#5B4173" points="93.9543269 11.702374 87.8619124 11.702374 83.1923077 16.732878 83.1923077 4.86452033 78.491453 4.86452033 78.491453 26.6734309 83.1923077 26.6734309 83.1923077 22.998374 84.7075321 21.4020163 88.3261218 26.6734309 94.0779915 26.6734309 87.9548611 17.9980488"></polygon>
                <path d="M69.2727297,15.4676553 C71.097516,15.4676553 72.0251335,16.5522732 72.3654113,17.6967285 L76.5713408,16.4617366 C75.8910524,13.780761 73.4169605,11.2504195 69.1800481,11.2504195 C64.6648237,11.2504195 61.077484,14.5339317 61.077484,19.2030699 C61.077484,23.8420293 64.7575053,27.1252813 69.3346955,27.1252813 C73.4476763,27.1252813 75.983734,24.5348423 76.6640224,21.9139642 L72.5200588,20.6789724 C72.179781,21.7935089 71.1594818,22.9080455 69.3346955,22.9080455 C67.3862447,22.9080455 65.7473558,21.5825171 65.7473558,19.2030699 C65.7473558,16.7931837 67.3245459,15.4676553 69.2727297,15.4676553" id="Fill-17" fill="#5B4173"></path>
                <path d="M54.0421474,7.1235122 C54.0421474,8.59941463 55.2793269,9.8044878 56.7638355,9.8044878 C58.3100427,9.8044878 59.5469551,8.59941463 59.5469551,7.1235122 C59.5469551,5.64760976 58.3100427,4.44253659 56.7638355,4.44253659 C55.2793269,4.44253659 54.0421474,5.64760976 54.0421474,7.1235122" id="Fill-19" fill="#5B4173"></path>
                <mask id="mask-2" fill="white">
                    <use xlink:href="#path-1"></use>
                </mask>
                <g id="Clip-22"></g>
                <polygon id="Fill-21" fill="#5B4173" mask="url(#mask-2)" points="54.4444444 26.6736911 59.1450321 26.6736911 59.1450321 11.702374 54.4444444 11.702374"></polygon>
                <path d="M44.8173344,14.8953496 L41.9722489,14.8953496 L41.9722489,9.44312195 L44.8173344,9.44312195 C46.6728365,9.44312195 47.9409989,10.467122 47.9409989,12.1841951 C47.9409989,13.8409106 46.6728365,14.8953496 44.8173344,14.8953496 M45.3122596,5.3161626 L37.054781,5.3161626 L37.054781,26.6734309 L41.941266,26.6734309 L41.941266,18.9921301 L45.3122596,18.9921301 C49.7652511,18.9921301 52.8272169,16.1906992 52.8272169,12.1542764 C52.8272169,8.17795122 49.7652511,5.3161626 45.3122596,5.3161626" id="Fill-23" fill="#5B4173" mask="url(#mask-2)"></path>
                <path d="M31.7869925,20.7825691 C31.7869925,17.1803577 29.3243857,14.1307317 25.9539263,13.1395122 C25.5778579,14.7025691 24.7309028,16.0874146 23.5650374,17.1483577 C23.5730502,17.1483577 23.5807959,17.1470569 23.5888088,17.1470569 C25.6470353,17.1470569 27.3211806,18.7782764 27.3211806,20.7825691 C27.3211806,22.7873821 25.6470353,24.4186016 23.5888088,24.4186016 C22.2025908,24.4186016 20.992922,23.6766179 20.3492254,22.5810732 C19.9784989,24.1420488 19.137687,25.526374 17.978766,26.5896585 C19.4467147,27.9362602 21.4178686,28.7682602 23.5888088,28.7682602 C28.109375,28.7682602 31.7869925,25.1858211 31.7869925,20.7825691" id="Fill-24" fill="#005CA9" mask="url(#mask-2)"></path>
                <path d="M26.1768162,11.3204033 C26.1768162,6.91715122 22.4991987,3.33523252 17.9788996,3.33523252 C13.4580662,3.33523252 9.78044872,6.91715122 9.78044872,11.3204033 C9.78044872,11.9468748 9.86271368,12.5540943 10.0034722,13.1394602 C10.752938,12.9191024 11.5462073,12.7973463 12.3685897,12.7973463 C13.1987179,12.7973463 13.9997329,12.9206634 14.755609,13.1449236 C14.4337607,12.607948 14.2462607,11.9858992 14.2462607,11.3204033 C14.2462607,9.31585041 15.9206731,7.68463089 17.9788996,7.68463089 C20.036859,7.68463089 21.7110043,9.31585041 21.7110043,11.3204033 C21.7110043,13.3249561 20.036859,14.9561756 17.9788996,14.9561756 C17.9706197,14.9561756 17.9628739,14.9548748 17.9548611,14.9548748 C19.1207265,16.016078 19.9679487,17.4004033 20.34375,18.9637203 C23.7142094,17.9722407 26.1768162,14.9226146 26.1768162,11.3204033" id="Fill-25" fill="#00AACD" mask="url(#mask-2)"></path>
                <path d="M12.3684562,24.4184976 C10.3104968,24.4184976 8.63581731,22.7875382 8.63581731,20.782465 C8.63581731,18.7781724 10.3104968,17.147213 12.3684562,17.147213 C14.4264156,17.147213 16.1010951,18.7781724 16.1010951,20.782465 C16.1010951,22.7875382 14.4264156,24.4184976 12.3684562,24.4184976 M12.3684562,12.7975545 C7.84815705,12.7975545 4.17053953,16.3794732 4.17053953,20.782465 C4.17053953,25.1859772 7.84815705,28.7681561 12.3684562,28.7681561 C16.8887553,28.7681561 20.56664,25.1859772 20.56664,20.782465 C20.56664,16.3794732 16.8887553,12.7975545 12.3684562,12.7975545" id="Fill-26" fill="#5B4173" mask="url(#mask-2)"></path>
            </g>
        </g>
    </g>
</svg>